<svg width="18" height="18" viewBox="0 0 18 18" fill="none" xmlns="http://www.w3.org/2000/svg">
<path d="M16.3636 7.36364H16.2C15.6273 7.36364 15.1364 7.03636 14.9727 6.54545V6.46364C14.7273 5.97273 14.8909 5.4 15.2182 4.99091L15.3 4.90909C15.9545 4.25455 15.9545 3.27273 15.3 2.61818C14.6455 1.96364 13.6636 1.96364 13.0091 2.61818L12.9273 2.7C12.5182 3.10909 11.9455 3.19091 11.4545 2.94545C10.9636 2.7 10.6364 2.20909 10.6364 1.71818V1.63636C10.6364 0.736364 9.9 0 9 0C8.1 0 7.36364 0.736364 7.36364 1.63636V1.8C7.36364 2.37273 7.03636 2.86364 6.54545 3.02727H6.46364C5.97273 3.27273 5.4 3.10909 4.99091 2.7H4.90909C4.25455 2.04545 3.27273 2.04545 2.61818 2.7C1.96364 3.35455 1.96364 4.33636 2.61818 4.99091L2.7 5.07273C3.02727 5.48182 3.19091 6.05455 2.94545 6.54545C2.78182 7.03636 2.29091 7.44545 1.71818 7.44545H1.63636C0.736364 7.44545 0 8.18182 0 9.08182C0 9.98182 0.736364 10.7182 1.63636 10.7182H1.8C2.37273 10.7182 2.86364 11.0455 3.02727 11.5364C3.27273 12.0273 3.10909 12.6 2.78182 13.0091L2.7 13.0909C2.04545 13.7455 2.04545 14.7273 2.7 15.3818C3.35455 16.0364 4.33636 16.0364 4.99091 15.3818L5.07273 15.3C5.48182 14.8909 6.05455 14.8091 6.54545 15.0545C7.03636 15.2182 7.44545 15.7091 7.44545 16.2818V16.3636C7.44545 17.2636 8.18182 18 9.08182 18C9.98182 18 10.7182 17.2636 10.7182 16.3636V16.2C10.7182 15.6273 11.0455 15.1364 11.5364 14.9727C12.0273 14.7273 12.6 14.8909 13.0091 15.2182L13.0909 15.3C13.7455 15.9545 14.7273 15.9545 15.3818 15.3C16.0364 14.6455 16.0364 13.6636 15.3818 13.0091L15.3 12.9273C14.8909 12.5182 14.8091 11.9455 15.0545 11.4545C15.3 10.9636 15.7909 10.6364 16.2818 10.6364H16.3636C17.2636 10.6364 18 9.9 18 9C18 8.1 17.2636 7.36364 16.3636 7.36364ZM9 11.1273C7.85455 11.1273 6.87273 10.2273 6.87273 9C6.87273 7.77273 7.85455 6.87273 9 6.87273C10.1455 6.87273 11.1273 7.77273 11.1273 9C11.1273 10.2273 10.1455 11.1273 9 11.1273Z" fill="#697886"/>
</svg>
