<svg width="20" height="19" viewBox="0 0 20 19" fill="none" xmlns="http://www.w3.org/2000/svg">
<path d="M17.003 12.7523H0C0.676422 12.7523 1.32514 12.4836 1.80344 12.0052C2.28174 11.5269 2.55045 10.8782 2.55045 10.2018V5.95105C2.55045 4.37274 3.17744 2.85906 4.29348 1.74302C5.40951 0.626984 6.92319 -8.86776e-08 8.50151 -8.86776e-08C10.0798 -8.86776e-08 11.5935 0.626984 12.7095 1.74302C13.8256 2.85906 14.4526 4.37274 14.4526 5.95105V10.2018C14.4526 10.8782 14.7213 11.5269 15.1996 12.0052C15.6779 12.4836 16.3266 12.7523 17.003 12.7523ZM9.97227 16.1529C9.8228 16.4105 9.60827 16.6244 9.35015 16.7731C9.09203 16.9217 8.79938 17 8.50151 17C8.20363 17 7.91098 16.9217 7.65286 16.7731C7.39474 16.6244 7.18021 16.4105 7.03075 16.1529" transform="translate(1 1)" fill="#273A4B"/>
<path d="M17.003 12.7523H0C0.676422 12.7523 1.32514 12.4836 1.80344 12.0052C2.28174 11.5269 2.55045 10.8782 2.55045 10.2018V5.95105C2.55045 4.37274 3.17744 2.85906 4.29348 1.74302C5.40951 0.626984 6.92319 -8.86776e-08 8.50151 -8.86776e-08C10.0798 -8.86776e-08 11.5935 0.626984 12.7095 1.74302C13.8256 2.85906 14.4526 4.37274 14.4526 5.95105V10.2018C14.4526 10.8782 14.7213 11.5269 15.1996 12.0052C15.6779 12.4836 16.3266 12.7523 17.003 12.7523ZM9.97227 16.1529C9.8228 16.4105 9.60827 16.6244 9.35015 16.7731C9.09203 16.9217 8.79938 17 8.50151 17C8.20363 17 7.91098 16.9217 7.65286 16.7731C7.39474 16.6244 7.18021 16.4105 7.03075 16.1529H9.97227Z" transform="translate(1 1)" stroke="#273A4B" stroke-width="2" stroke-linecap="round" stroke-linejoin="round"/>
</svg>
