<svg width="18" height="18" viewBox="0 0 18 18" fill="none" xmlns="http://www.w3.org/2000/svg">
<path d="M9 18C13.9706 18 18 13.9706 18 9C18 4.02944 13.9706 0 9 0C4.02944 0 0 4.02944 0 9C0 13.9706 4.02944 18 9 18Z" fill="#9DAAB5"/>
<path d="M4.52588 11.0923L4.38623 11.6636C3.96729 11.8286 3.63298 11.9535 3.3833 12.0381C3.13363 12.127 2.84375 12.1714 2.51367 12.1714C2.00586 12.1714 1.61019 12.0487 1.32666 11.8032C1.04736 11.5535 0.907715 11.2383 0.907715 10.8574C0.907715 10.7093 0.918294 10.5591 0.939453 10.4067C0.960612 10.2502 0.994466 10.0745 1.04102 9.87988L1.56152 8.02637C1.60807 7.84863 1.64616 7.68148 1.67578 7.5249C1.70964 7.3641 1.72656 7.2181 1.72656 7.08691C1.72656 6.84993 1.6779 6.6849 1.58057 6.5918C1.48324 6.4987 1.29704 6.45215 1.02197 6.45215C0.886556 6.45215 0.746908 6.47331 0.603027 6.51562C0.463379 6.55794 0.342773 6.59814 0.241211 6.63623L0.380859 6.06494C0.723633 5.92529 1.0516 5.8068 1.36475 5.70947C1.6779 5.60791 1.97412 5.55713 2.25342 5.55713C2.757 5.55713 3.14421 5.67985 3.41504 5.92529C3.6901 6.1665 3.82764 6.48177 3.82764 6.87109C3.82764 6.9515 3.81706 7.09326 3.7959 7.29639C3.77897 7.49951 3.74512 7.68571 3.69434 7.85498L3.17383 9.70215C3.13151 9.85026 3.09342 10.0195 3.05957 10.21C3.02572 10.4004 3.00879 10.5443 3.00879 10.6416C3.00879 10.887 3.0638 11.0542 3.17383 11.1431C3.28385 11.2319 3.47428 11.2764 3.74512 11.2764C3.87207 11.2764 4.01595 11.2552 4.17676 11.2129C4.33757 11.1663 4.45394 11.1261 4.52588 11.0923ZM4.65918 3.3418C4.65918 3.66341 4.53646 3.93848 4.29102 4.16699C4.0498 4.39128 3.75781 4.50342 3.41504 4.50342C3.07227 4.50342 2.77816 4.39128 2.53271 4.16699C2.28727 3.93848 2.16455 3.66341 2.16455 3.3418C2.16455 3.02018 2.28727 2.74512 2.53271 2.5166C2.77816 2.28809 3.07227 2.17383 3.41504 2.17383C3.75781 2.17383 4.0498 2.28809 4.29102 2.5166C4.53646 2.74512 4.65918 3.02018 4.65918 3.3418Z" transform="translate(6 2)" fill="white"/>
</svg>
