<svg width="122" height="26" viewBox="0 0 122 26" fill="none" xmlns="http://www.w3.org/2000/svg">
<path fill-rule="evenodd" clip-rule="evenodd" d="M26 2H0V0H26V2Z" transform="translate(122) rotate(90)" fill="#EE6C4D"/>
<path d="M8.688 16.56C13.008 16.56 15.144 14.016 16.08 11.88L11.904 9.96C11.496 11.208 10.248 12.288 8.688 12.288C6.48 12.288 4.92 10.512 4.92 8.28C4.92 6.048 6.48 4.272 8.688 4.272C10.248 4.272 11.496 5.352 11.904 6.6L16.08 4.656C15.12 2.448 13.008 0 8.688 0C3.792 0 0 3.336 0 8.28C0 13.2 3.792 16.56 8.688 16.56Z" transform="translate(0.432129 5.72803)" fill="#059CAF"/>
<path d="M19.9984 16.272H30.9184V12.048H24.8464V0.263999H19.9984V16.272Z" transform="translate(0.432129 5.72803)" fill="#059CAF"/>
<path d="M46.1856 16.272H51.4416L45.5376 0.263999H39.4416L33.5376 16.272H38.7936L39.4176 14.208H45.5616L46.1856 16.272ZM42.4896 4.536L44.3136 10.176H40.6656L42.4896 4.536Z" transform="translate(0.432129 5.72803)" fill="#059CAF"/>
<path d="M63.5126 16.272H69.0326L66.1286 10.608C67.4006 9.984 69.0086 8.52 69.0086 5.76C69.0086 2.76 66.9926 0.263999 63.2486 0.263999H54.7046V16.272H59.5526V11.136H61.3046L63.5126 16.272ZM64.0886 5.688C64.0886 6.576 63.3206 7.104 62.5046 7.104H59.5526V4.296H62.5046C63.3206 4.296 64.0886 4.824 64.0886 5.688Z" transform="translate(0.432129 5.72803)" fill="#059CAF"/>
<path d="M73.3702 16.272H78.2182V0.263999H73.3702V16.272Z" transform="translate(0.432129 5.72803)" fill="#059CAF"/>
<path d="M86.6319 16.272H91.4799V4.488H95.7519V0.263999H82.3359V4.488H86.6319V16.272Z" transform="translate(0.432129 5.72803)" fill="#059CAF"/>
<path d="M104.145 16.272H108.993V9.912L114.945 0.263999H109.497L106.569 5.664L103.593 0.263999H98.1454L104.145 9.912V16.272Z" transform="translate(0.432129 5.72803)" fill="#059CAF"/>
</svg>
