<svg width="68" height="68" viewBox="0 0 68 68" fill="none" xmlns="http://www.w3.org/2000/svg">
<path d="M33.5 67.1C32.4 67.1 31.5 66.2 31.5 65.1C31.5 64 32.4 63.1 33.5 63.1C35 63.1 36.5 63 38 62.8C39.1 62.6 40.1 63.4 40.3 64.5C40.5 65.6 39.7 66.6 38.6 66.8C37 67 35.3 67.1 33.5 67.1ZM22.1 65C21.9 65 21.6 65 21.4 64.9C19.8 64.3 18.2 63.5 16.8 62.7C15.8 62.1 15.5 60.9 16.1 60C16.7 59 17.9 58.7 18.8 59.3C20.1 60.1 21.5 60.7 22.9 61.3C23.9 61.7 24.4 62.9 24 63.9C23.7 64.5 22.9 65 22.1 65ZM49.3 62.9C48.6 62.9 47.9 62.5 47.6 61.9C47 60.9 47.4 59.7 48.3 59.2C49.6 58.4 50.9 57.6 52.1 56.6C53 55.9 54.2 56 54.9 56.9C55.6 57.8 55.5 59 54.6 59.7C53.3 60.8 51.8 61.8 50.3 62.6C50 62.8 49.6 62.9 49.3 62.9ZM9 55.3C8.4 55.3 7.8 55 7.4 54.6C6.3 53.3 5.3 51.8 4.5 50.3C3.9 49.3 4.3 48.1 5.2 47.6C6.2 47 7.4 47.4 7.9 48.3C8.7 49.6 9.5 50.9 10.5 52C11.2 52.9 11.1 54.1 10.2 54.8C9.8 55.2 9.4 55.3 9 55.3ZM60.8 51.4C60.5 51.4 60.1 51.3 59.8 51.1C58.8 50.5 58.5 49.3 59.1 48.4C59.9 47.1 60.5 45.7 61.1 44.3C61.5 43.3 62.7 42.8 63.7 43.2C64.7 43.6 65.2 44.8 64.8 45.8C64.2 47.4 63.4 49 62.6 50.4C62.2 51 61.5 51.4 60.8 51.4ZM2.4 40.4C1.4 40.4 0.6 39.7 0.4 38.7C0.1 37 0 35.3 0 33.5V33.4C0 32.3 0.9 31.4 2 31.4C3.1 31.4 4 32.3 4 33.4V33.5C4 35 4.1 36.5 4.3 38C4.5 39.1 3.7 40.1 2.6 40.3C2.6 40.4 2.5 40.4 2.4 40.4ZM65.1 35.6C64 35.6 63.1 34.7 63.1 33.6V33.5C63.1 32 63 30.5 62.8 29C62.6 27.9 63.4 26.9 64.5 26.7C65.6 26.5 66.6 27.3 66.8 28.4C67.1 30.1 67.2 31.8 67.2 33.5C67.1 34.6 66.2 35.6 65.1 35.6ZM4.2 24C4 24 3.7 24 3.5 23.9C2.5 23.5 2 22.3 2.4 21.3C3 19.7 3.8 18.1 4.6 16.7C5.2 15.7 6.4 15.4 7.3 16C8.3 16.6 8.6 17.8 8 18.7C7.2 20 6.6 21.4 6 22.8C5.7 23.5 5 24 4.2 24ZM60.9 19.8C60.2 19.8 59.5 19.4 59.2 18.8C58.4 17.5 57.6 16.2 56.6 15C55.9 14.1 56 12.9 56.9 12.2C57.8 11.5 59 11.6 59.7 12.5C60.8 13.8 61.8 15.3 62.6 16.8C63.1 17.8 62.8 19 61.9 19.5C61.6 19.8 61.2 19.8 60.9 19.8ZM13.9 10.9C13.3 10.9 12.7 10.6 12.3 10.1C11.6 9.2 11.8 8 12.6 7.3C13.9 6.2 15.4 5.3 16.9 4.4C17.9 3.8 19.1 4.2 19.6 5.1C20.1 6.1 19.8 7.3 18.9 7.8C17.6 8.6 16.3 9.4 15.1 10.4C14.7 10.8 14.3 10.9 13.9 10.9ZM49.4 8.3C49.1 8.3 48.7 8.2 48.4 8C47.1 7.2 45.7 6.6 44.3 6C43.3 5.6 42.8 4.4 43.2 3.4C43.6 2.4 44.8 1.9 45.8 2.3C47.4 2.9 49 3.7 50.4 4.5C51.4 5.1 51.7 6.3 51.1 7.2C50.8 7.9 50.1 8.3 49.4 8.3ZM28.8 4.4C27.8 4.4 27 3.7 26.8 2.7C26.6 1.6 27.4 0.6 28.5 0.4C30.2 0.2 31.8 0 33.5 0H33.6C34.7 0 35.6 0.9 35.6 2C35.6 3.1 34.7 4 33.6 4H33.5C32 4 30.5 4.1 29.1 4.3C29 4.3 28.9 4.4 28.8 4.4Z" fill="#CFD0D1"/>
<path d="M-3.8147e-07 1.8C-3.8147e-07 2.8 0.800001 3.6 1.8 3.6H19.8C20.8 3.6 21.6 2.8 21.6 1.8C21.6 0.8 20.8 7.62939e-07 19.8 7.62939e-07H1.8C0.800001 7.62939e-07 -3.8147e-07 0.8 -3.8147e-07 1.8Z" transform="translate(18.8999 20.7)" fill="#CFD0D1"/>
<path d="M-3.8147e-07 1.8C-3.8147e-07 2.8 0.800001 3.6 1.8 3.6H30.6C31.6 3.6 32.4 2.8 32.4 1.8C32.4 0.799999 31.6 0 30.6 0H1.8C0.800001 0 -3.8147e-07 0.799999 -3.8147e-07 1.8Z" transform="translate(18.8999 31.5)" fill="#CFD0D1"/>
<path d="M-3.8147e-07 1.8C-3.8147e-07 2.8 0.800001 3.6 1.8 3.6H12.6C13.6 3.6 14.4 2.8 14.4 1.8C14.4 0.799999 13.6 -7.62939e-07 12.6 -7.62939e-07H1.8C0.800001 -7.62939e-07 -3.8147e-07 0.799999 -3.8147e-07 1.8Z" transform="translate(18.8999 42.3)" fill="#CFD0D1"/>
</svg>
