<svg width="15" height="15" viewBox="0 0 15 15" fill="none" xmlns="http://www.w3.org/2000/svg">
<path fill-rule="evenodd" clip-rule="evenodd" d="M7.41478 0.579102C7.62591 0.473633 7.87444 0.473633 8.08556 0.579102L14.5856 3.8291C14.8397 3.9563 15.0002 4.21582 15.0002 4.5C15.0002 4.78418 14.8397 5.0437 14.5856 5.1709L8.08556 8.4209C7.87444 8.52637 7.62591 8.52637 7.41478 8.4209L0.914785 5.1709C0.660696 5.0437 0.500173 4.78418 0.500173 4.5C0.500173 4.21582 0.660696 3.9563 0.914785 3.8291L7.41478 0.579102ZM2.92724 4.5L7.75017 6.91138L12.5731 4.5L7.75017 2.08862L2.92724 4.5ZM0.579336 10.6646C0.764577 10.2942 1.21508 10.144 1.58556 10.3291L7.75017 13.4114L13.9148 10.3291C14.2853 10.144 14.7358 10.2942 14.921 10.6646C15.1063 11.0352 14.956 11.4856 14.5856 11.6709L8.08556 14.9209C7.87444 15.0264 7.62591 15.0264 7.41478 14.9209L0.914785 11.6709C0.544302 11.4856 0.394094 11.0352 0.579336 10.6646ZM1.58556 7.0791C1.21508 6.89404 0.764577 7.04419 0.579336 7.41455C0.394094 7.78516 0.544302 8.2356 0.914785 8.4209L7.41478 11.6709C7.62591 11.7764 7.87444 11.7764 8.08556 11.6709L14.5856 8.4209C14.956 8.2356 15.1063 7.78516 14.921 7.41455C14.7358 7.04419 14.2853 6.89404 13.9148 7.0791L7.75017 10.1614L1.58556 7.0791Z" fill="#059CAF"/>
</svg>
