<svg width="75" height="76" viewBox="0 0 75 76" fill="none" xmlns="http://www.w3.org/2000/svg">
<path d="M36.9896 74.0896C35.775 74.0896 34.7812 73.0958 34.7812 71.8812C34.7812 70.6667 35.775 69.6729 36.9896 69.6729C38.6458 69.6729 40.3021 69.5625 41.9583 69.3417C43.1729 69.1208 44.2771 70.0042 44.4979 71.2188C44.7188 72.4333 43.8354 73.5375 42.6208 73.7583C40.8542 73.9792 38.9771 74.0896 36.9896 74.0896ZM24.4021 71.7708C24.1812 71.7708 23.85 71.7708 23.6292 71.6604C21.8625 70.9979 20.0958 70.1146 18.55 69.2313C17.4458 68.5688 17.1146 67.2438 17.7771 66.25C18.4396 65.1458 19.7646 64.8146 20.7583 65.4771C22.1937 66.3604 23.7396 67.0229 25.2854 67.6854C26.3896 68.1271 26.9417 69.4521 26.5 70.5563C26.1688 71.2188 25.2854 71.7708 24.4021 71.7708ZM54.4354 69.4521C53.6625 69.4521 52.8896 69.0104 52.5583 68.3479C51.8958 67.2438 52.3375 65.9188 53.3312 65.3667C54.7667 64.4833 56.2021 63.6 57.5271 62.4958C58.5208 61.7229 59.8458 61.8333 60.6188 62.8271C61.3917 63.8208 61.2812 65.1458 60.2875 65.9188C58.8521 67.1333 57.1958 68.2375 55.5396 69.1208C55.2083 69.3417 54.7667 69.4521 54.4354 69.4521ZM9.9375 61.0604C9.275 61.0604 8.6125 60.7292 8.17083 60.2875C6.95625 58.8521 5.85208 57.1958 4.96875 55.5396C4.30625 54.4354 4.74792 53.1104 5.74167 52.5583C6.84583 51.8958 8.17083 52.3375 8.72292 53.3312C9.60625 54.7667 10.4896 56.2021 11.5938 57.4167C12.3667 58.4104 12.2562 59.7354 11.2625 60.5083C10.8208 60.95 10.3792 61.0604 9.9375 61.0604ZM67.1333 56.7542C66.8021 56.7542 66.3604 56.6437 66.0292 56.4229C64.925 55.7604 64.5938 54.4354 65.2562 53.4417C66.1396 52.0063 66.8021 50.4604 67.4646 48.9146C67.9062 47.8104 69.2313 47.2583 70.3354 47.7C71.4396 48.1417 71.9917 49.4667 71.55 50.5708C70.8875 52.3375 70.0042 54.1042 69.1208 55.65C68.6792 56.3125 67.9062 56.7542 67.1333 56.7542ZM2.65 44.6083C1.54583 44.6083 0.6625 43.8354 0.441667 42.7313C0.110417 40.8542 0 38.9771 0 36.9896V36.8792C0 35.6646 0.99375 34.6708 2.20833 34.6708C3.42292 34.6708 4.41667 35.6646 4.41667 36.8792V36.9896C4.41667 38.6458 4.52708 40.3021 4.74792 41.9583C4.96875 43.1729 4.08542 44.2771 2.87083 44.4979C2.87083 44.6083 2.76042 44.6083 2.65 44.6083ZM71.8812 39.3083C70.6667 39.3083 69.6729 38.3146 69.6729 37.1V36.9896C69.6729 35.3333 69.5625 33.6771 69.3417 32.0208C69.1208 30.8063 70.0042 29.7021 71.2188 29.4813C72.4333 29.2604 73.5375 30.1438 73.7583 31.3583C74.0896 33.2354 74.2 35.1125 74.2 36.9896C74.0896 38.2042 73.0958 39.3083 71.8812 39.3083ZM4.6375 26.5C4.41667 26.5 4.08542 26.5 3.86458 26.3896C2.76042 25.9479 2.20833 24.6229 2.65 23.5187C3.3125 21.7521 4.19583 19.9854 5.07917 18.4396C5.74167 17.3354 7.06667 17.0042 8.06042 17.6667C9.16458 18.3292 9.49583 19.6542 8.83333 20.6479C7.95 22.0833 7.2875 23.6292 6.625 25.175C6.29375 25.9479 5.52083 26.5 4.6375 26.5ZM67.2438 21.8625C66.4708 21.8625 65.6979 21.4208 65.3667 20.7583C64.4833 19.3229 63.6 17.8875 62.4958 16.5625C61.7229 15.5688 61.8333 14.2438 62.8271 13.4708C63.8208 12.6979 65.1458 12.8083 65.9188 13.8021C67.1333 15.2375 68.2375 16.8937 69.1208 18.55C69.6729 19.6542 69.3417 20.9792 68.3479 21.5312C68.0167 21.8625 67.575 21.8625 67.2438 21.8625ZM15.3479 12.0354C14.6854 12.0354 14.0229 11.7042 13.5813 11.1521C12.8083 10.1583 13.0292 8.83333 13.9125 8.06042C15.3479 6.84583 17.0042 5.85208 18.6604 4.85833C19.7646 4.19583 21.0896 4.6375 21.6417 5.63125C22.1938 6.73542 21.8625 8.06042 20.8687 8.6125C19.4333 9.49583 17.9979 10.3792 16.6729 11.4833C16.2313 11.925 15.7896 12.0354 15.3479 12.0354ZM54.5458 9.16458C54.2146 9.16458 53.7729 9.05417 53.4417 8.83333C52.0063 7.95 50.4604 7.2875 48.9146 6.625C47.8104 6.18333 47.2583 4.85833 47.7 3.75417C48.1417 2.65 49.4667 2.09792 50.5708 2.53958C52.3375 3.20208 54.1042 4.08542 55.65 4.96875C56.7542 5.63125 57.0854 6.95625 56.4229 7.95C56.0917 8.72292 55.3188 9.16458 54.5458 9.16458ZM31.8 4.85833C30.6958 4.85833 29.8125 4.08542 29.5917 2.98125C29.3708 1.76667 30.2542 0.6625 31.4688 0.441667C33.3458 0.220833 35.1125 0 36.9896 0H37.1C38.3146 0 39.3083 0.99375 39.3083 2.20833C39.3083 3.42292 38.3146 4.41667 37.1 4.41667H36.9896C35.3333 4.41667 33.6771 4.52708 32.1313 4.74792C32.0208 4.74792 31.9104 4.85833 31.8 4.85833Z" transform="translate(0 0.976074)" fill="#9DAAB5"/>
<path d="M24.8772 10V6.66667C24.8772 4.89856 24.1782 3.20287 22.9341 1.95262C21.69 0.702381 20.0027 0 18.2433 0H6.63391C4.87449 0 3.18713 0.702381 1.94303 1.95262C0.698928 3.20287 0 4.89856 0 6.66667V10" transform="translate(21 40)" stroke="#9DAAB5" stroke-width="4" stroke-linecap="round" stroke-linejoin="round"/>
<path d="M6.63391 13.3333C10.2977 13.3333 13.2678 10.3486 13.2678 6.66667C13.2678 2.98477 10.2977 0 6.63391 0C2.9701 0 0 2.98477 0 6.66667C0 10.3486 2.9701 13.3333 6.63391 13.3333Z" transform="translate(26.8057 20)" stroke="#9DAAB5" stroke-width="4" stroke-linecap="round" stroke-linejoin="round"/>
<path d="M0 3.33334L3.31696 6.66667L9.95087 0" transform="translate(47.5361 30.0002)" stroke="#9DAAB5" stroke-width="4" stroke-linecap="round" stroke-linejoin="round"/>
</svg>
