<?xml version="1.0" encoding="UTF-8"?>
<svg width="150px" height="32px" viewBox="0 0 150 32" version="1.1" xmlns="http://www.w3.org/2000/svg" xmlns:xlink="http://www.w3.org/1999/xlink">
    <!-- Generator: Sketch 51.1 (57501) - http://www.bohemiancoding.com/sketch -->
    <title>Logos/Primary Logo/Full Color</title>
    <desc>Created with Sketch.</desc>
    <defs>
        <path d="M4.17808756,4.95421277 L4.17808756,9.08970213 L11.2495161,9.08970213 L11.2495161,12.1099574 L4.17808756,12.1099574 L4.17808756,16.5450213 L12.3271659,16.5450213 L12.3271659,19.728 L0.255276498,19.728 L0.255276498,1.77055319 L12.3271659,1.77055319 L12.3271659,4.95421277 L4.17808756,4.95421277 Z M28.6240092,13.3073021 C28.6240092,17.4972596 26.0546544,19.8918128 22.6571889,19.8918128 C20.8067281,19.8918128 19.53553,19.1571745 18.7896774,18.1229617 L18.7896774,25.2787064 L15.0058065,25.2787064 L15.0058065,6.88619574 L17.9885253,6.77725957 C18.265023,7.56636596 18.4585714,8.95394043 18.4309217,9.30730213 L18.5131797,9.30730213 C19.204424,7.81147234 20.5578802,6.72279149 22.8507373,6.72279149 C26.3864516,6.72279149 28.6240092,9.47070638 28.6240092,13.3073021 Z M24.7841475,13.3073021 C24.7841475,11.2123234 23.6242396,9.85198298 21.8007373,9.85198298 C19.977235,9.85198298 18.7896774,11.3757277 18.7896774,12.8715574 L18.7896774,13.742366 C18.7896774,15.1571745 19.8673272,16.7626213 21.8836866,16.7626213 C23.6518894,16.7626213 24.7841475,15.4022809 24.7841475,13.3073021 Z M31.0812442,6.88605957 L34.8658065,6.7771234 L34.8658065,19.7282723 L31.0812442,19.7282723 L31.0812442,6.88605957 Z M32.9870046,5.08997447 C31.6335484,5.08997447 30.5565899,4.13814468 30.5565899,2.77780426 C30.5565899,1.44401702 31.6335484,0.464953191 32.9870046,0.464953191 C34.3404608,0.464953191 35.4457604,1.44401702 35.4457604,2.77780426 C35.4457604,4.13814468 34.3404608,5.08997447 32.9870046,5.08997447 Z M51.6051152,13.3073021 C51.6051152,17.4972596 49.0357604,19.8918128 45.6382949,19.8918128 C43.7878341,19.8918128 42.5173272,19.1571745 41.7714747,18.1229617 L41.7714747,25.2787064 L37.9869124,25.2787064 L37.9869124,6.88619574 L40.9696313,6.77725957 C41.246129,7.56636596 41.4396774,8.95394043 41.4120276,9.30730213 L41.494977,9.30730213 C42.18553,7.81147234 43.5389862,6.72279149 45.8318433,6.72279149 C49.3675576,6.72279149 51.6051152,9.47070638 51.6051152,13.3073021 Z M47.7652535,13.3073021 C47.7652535,11.2123234 46.6053456,9.85198298 44.7825346,9.85198298 C42.9590323,9.85198298 41.7714747,11.3757277 41.7714747,12.8715574 L41.7714747,13.742366 C41.7714747,15.1571745 42.8484332,16.7626213 44.8647926,16.7626213 C46.6329954,16.7626213 47.7652535,15.4022809 47.7652535,13.3073021 Z M66.7144009,11.8378894 L66.7144009,19.7282723 L62.9021889,19.7282723 L62.9021889,12.4908255 C62.9021889,10.9670809 62.1563364,9.93354894 60.6093318,9.93354894 C58.6759217,9.93354894 57.8471198,11.5662298 57.8471198,13.0892936 L57.8471198,19.7282723 L54.0625576,19.7282723 L54.0625576,0.518740426 L57.7641705,0.518740426 L57.7918203,8.9810383 L57.8747696,8.9810383 C58.5376728,7.67516596 59.7252304,6.72265532 61.8245392,6.72265532 C65.084447,6.72265532 66.7144009,8.92657021 66.7144009,11.8378894 Z M82.4861751,19.6469106 C82.4861751,19.6469106 81.685023,19.892017 80.6357143,19.892017 C78.8398618,19.892017 77.8728111,19.2118468 77.6246544,17.8515064 C77.2099078,18.6399319 76.1329493,19.892017 73.4260369,19.892017 C70.6078341,19.892017 69.0062212,18.5037617 69.0062212,16.3543149 C69.0062212,13.1706553 72.4036866,12.3822298 77.2652074,12.2732936 L77.431106,12.2732936 L77.431106,11.7020596 C77.431106,10.3961872 76.6576037,9.52537872 75.0552995,9.52537872 C73.618894,9.52537872 72.8177419,10.0966128 72.8177419,11.0218894 C72.8177419,11.2125277 72.8453917,11.3752511 72.928341,11.5114213 L69.6131336,12.0554213 C69.6131336,12.0554213 69.4479263,11.5114213 69.4479263,10.804017 C69.4479263,8.35499574 71.6301843,6.72299574 75.2211982,6.72299574 C79.0610599,6.72299574 81.1327189,8.62733617 81.1327189,11.8654638 L81.1327189,16.0554213 C81.1327189,16.6538894 81.3539171,16.8989957 81.8509217,16.8989957 C82.0168203,16.8989957 82.1827189,16.8717617 82.3202765,16.8166128 L82.4861751,19.6469106 Z M77.431106,15.1846128 L77.431106,14.1504 L77.2652074,14.1504 C74.1442396,14.2321021 72.6794931,14.6678468 72.6794931,15.864783 C72.6794931,16.7083574 73.3700461,17.1434213 74.5029954,17.1434213 C76.3264977,17.1434213 77.431106,16.2188255 77.431106,15.1846128 Z M97.2915207,11.8378894 L97.2915207,19.7282723 L93.5069585,19.7282723 L93.5069585,12.4908255 C93.5069585,10.9670809 92.7341475,9.93354894 91.2141014,9.93354894 C89.2806912,9.93354894 88.4518894,11.5934638 88.4518894,13.0892936 L88.4518894,19.7282723 L84.6680184,19.7282723 L84.6680184,6.88605957 L87.6237788,6.7771234 C87.8995853,7.62069787 88.0931336,8.92657021 88.0931336,9.47057021 L88.2037327,9.47057021 C88.8389862,7.94750638 90.1094931,6.72265532 92.43,6.72265532 C95.6622581,6.72265532 97.2915207,8.92657021 97.2915207,11.8378894 Z M101.793387,25.4419064 C100.301682,25.4419064 99.3622811,24.9251404 99.3622811,24.9251404 L99.9152765,22.0682894 C99.9152765,22.0682894 100.633479,22.4488851 101.489931,22.4488851 C102.677488,22.4488851 103.312742,21.8776511 103.754447,20.9251404 L104.003295,20.2994383 L98.6171198,6.88599149 L102.677488,6.88599149 L105.356751,14.5047149 C105.577949,15.1848851 105.660899,15.5110128 105.771498,16.191183 L105.826106,16.191183 C105.965046,15.4837787 106.047304,15.1297362 106.240853,14.5047149 L108.837166,6.88599149 L112.650069,6.88599149 L107.097304,21.4425872 C106.240853,23.6737362 104.638548,25.4419064 101.793387,25.4419064 Z" id="path-1"></path>
        <path d="M16.2974654,17.9525447 L16.2974654,13.4752681 C16.2974654,13.1477787 16.5677419,12.8822468 16.8995392,12.8822468 L16.9845622,12.8822468 C17.9225806,12.8822468 18.6829493,13.6318638 18.6829493,14.5564596 L18.6829493,16.872034 C18.6829493,17.7959489 17.9225806,18.545566 16.9845622,18.545566 L16.8995392,18.545566 C16.5677419,18.545566 16.2974654,18.2793532 16.2974654,17.9525447 Z M26.5859447,20.5411404 C26.5859447,21.7714383 25.9133641,22.9186723 24.8315668,23.5334809 C24.8315668,23.5334809 16.3817972,28.3348426 16.2974654,28.3743319 L16.2974654,22.1036936 C16.2974654,21.7762043 16.5677419,21.5106723 16.8995392,21.5106723 L16.9845622,21.5106723 C19.585023,21.5106723 21.693318,19.4333957 21.693318,16.872034 L21.693318,14.5564596 C21.693318,11.994417 19.585023,9.91714043 16.9845622,9.91714043 L16.3486175,9.91714043 C14.6578341,9.91714043 13.2870968,11.2672681 13.2870968,12.9326298 L13.2870968,17.9525447 C13.2870968,18.2793532 13.0175115,18.545566 12.685023,18.545566 L12.6006912,18.545566 C11.6619816,18.545566 10.9009217,17.7959489 10.9009217,16.872034 L10.9009217,14.5564596 C10.9009217,14.3093106 10.9589862,14.0873532 11.0315668,13.9069277 C11.1525346,13.6039489 11.0294931,13.2594383 10.743318,13.0967149 L9.28548387,12.2688 C8.94608295,12.0761191 8.5140553,12.2109277 8.34608295,12.5595234 C8.05023041,13.1716085 7.890553,13.850417 7.890553,14.5564596 L7.890553,16.872034 C7.890553,19.4333957 9.99953917,21.5106723 12.6006912,21.5106723 L12.685023,21.5106723 C13.0175115,21.5106723 13.2870968,21.7762043 13.2870968,22.1036936 L13.2870968,28.3743319 C13.202765,28.3348426 4.75368664,23.5334809 4.75368664,23.5334809 C3.67119816,22.9186723 2.99930876,21.7714383 2.99930876,20.5411404 L2.99930876,11.1181617 C2.99930876,9.88786383 3.67119816,8.74131064 4.75368664,8.12582128 L13.0382488,3.41433191 C13.5794931,3.10658723 14.1857143,2.95271489 14.7926267,2.95271489 C15.3988479,2.95271489 16.0057604,3.10726809 16.5463134,3.41433191 L24.8315668,8.12582128 C25.9133641,8.74131064 26.5859447,9.88786383 26.5859447,11.1181617 L26.5859447,20.5411404 Z M26.3315668,5.56718298 L18.0463134,0.855693617 C16.0389401,-0.285412766 13.5463134,-0.285412766 11.5389401,0.855693617 L3.25368664,5.56718298 C1.24700461,6.70828936 0,8.83594894 0,11.1181617 L0,20.5411404 C0,22.8233532 1.24700461,24.9510128 3.25368664,26.0921191 L11.5389401,30.8036085 C12.5419355,31.3741617 13.6672811,31.6594383 14.7926267,31.6594383 C15.9172811,31.6594383 17.0426267,31.3741617 18.0463134,30.8036085 L26.3315668,26.0921191 C28.3375576,24.9510128 29.5852535,22.8233532 29.5852535,20.5411404 L29.5852535,11.1181617 C29.5852535,8.83594894 28.3375576,6.70828936 26.3315668,5.56718298 Z" id="path-3"></path>
    </defs>
    <g id="Page-1" stroke="none" stroke-width="1" fill="none" fill-rule="evenodd">
        <g id="Primary" transform="translate(-525.000000, -1013.000000)">
            <g id="//-2.-Logo" transform="translate(87.000000, 962.000000)">
                <g id="Primary-Logo" transform="translate(437.000000, 0.000000)">
                    <g id="Logos/Primary-Logo" transform="translate(1.000000, 51.000000)">
                        <g id="Logotype" transform="translate(37.327189, 6.127660)">
                            <mask id="mask-2" fill="white">
                                <use xlink:href="#path-1"></use>
                            </mask>
                            <use id="Mask" fill="#192D57" xlink:href="#path-1"></use>
                            <g id="Color/Night" mask="url(#mask-2)" fill="#182E57">
                                <g transform="translate(-3.456221, -6.127660)" id="Rectangle">
                                    <rect x="0" y="0" width="116" height="32"></rect>
                                </g>
                            </g>
                        </g>
                        <g id="Logomark">
                            <mask id="mask-4" fill="white">
                                <use xlink:href="#path-3"></use>
                            </mask>
                            <use id="Mask" fill="#059CAF" xlink:href="#path-3"></use>
                            <g id="Color/Primary" mask="url(#mask-4)" fill="#059CAF">
                                <rect id="Rectangle" x="0" y="0" width="35" height="32"></rect>
                            </g>
                        </g>
                    </g>
                </g>
            </g>
        </g>
    </g>
</svg>