<svg width="31" height="31" viewBox="0 0 31 31" fill="none" xmlns="http://www.w3.org/2000/svg">
<mask id="mask0" mask-type="alpha" maskUnits="userSpaceOnUse" x="0" y="0" width="31" height="31">
<circle cx="15.5" cy="15.5" r="15.5" fill="#EFEFEF"/>
</mask>
<g mask="url(#mask0)">
<circle opacity="0.75" cx="15.5" cy="15.5" r="14.5" fill="#D5DCE3" stroke="#D5DCE3" stroke-width="2"/>
<path d="M23.547 21.5938C23.5008 20.9181 23.3642 19.2632 23.0861 18.4962C22.7272 17.5048 22.2852 17.0593 21.7321 16.6957C21.4604 16.5169 20.4507 16.1399 18.9421 15.5852C17.5712 15.0808 16.0177 14.5088 15.4604 14.1967C14.9573 13.9145 14.5692 12.6148 14.5809 12.2088C14.5862 12.1894 14.6271 12.1004 14.9206 11.7839C15.5128 11.1465 16.2969 9.92059 16.6191 8.73422C17.0582 7.11564 17.3951 3.83688 15.8738 1.81805C15.0086 0.669889 13.6623 0.0591618 11.8716 0.0028796L11.7372 0L11.6907 0.0028796C9.89981 0.0591618 8.55303 0.670151 7.68758 1.81857C6.166 3.83845 6.50363 7.11617 6.94299 8.73474C7.26468 9.92007 8.04645 11.1444 8.63697 11.7803C8.64069 11.7842 8.64467 11.7881 8.64839 11.792C8.64892 11.7928 8.64972 11.7936 8.65052 11.7944C8.73738 11.8881 8.94086 12.1077 8.98442 12.2287C9.14115 12.6643 8.57162 13.9329 8.10171 14.1967C7.54546 14.5085 5.99121 15.0802 4.60059 15.592C3.10213 16.1436 2.09934 16.5182 1.82945 16.6957C1.27666 17.0587 0.834902 17.5038 0.475758 18.4956C0.19551 19.2671 0.0587062 20.9344 0.0127507 21.6153L0 21.8048L0.139726 21.9357C0.546418 22.3166 2.58811 23.56 11.7808 23.56C20.8996 23.56 22.9915 22.3035 23.4155 21.9187L23.56 21.7872L23.547 21.5938Z" transform="translate(27.2803 7.43994) scale(-1 1)" fill="#717A83"/>
</g>
</svg>
