<svg width="289" height="122" viewBox="0 0 289 122" fill="none" xmlns="http://www.w3.org/2000/svg">
<g filter="url(#filter0_dd)">
<rect width="251" height="146" rx="5" transform="translate(19 53)" fill="white"/>
<rect x="0.5" y="0.5" width="250" height="145" rx="4.5" transform="translate(19 53)" stroke="#D5DCE3"/>
</g>
<g filter="url(#filter1_ddd)">
<rect width="187.251" height="72" rx="2" transform="translate(50.874 10)" fill="white"/>
<rect x="0.5" y="0.5" width="186.251" height="71" rx="1.5" transform="translate(50.874 10)" stroke="#D5DCE3"/>
</g>
<g filter="url(#filter2_dddd)">
<rect width="205" height="64" rx="2" transform="translate(42 15)" fill="white"/>
<rect width="205" height="64" rx="2" transform="translate(42 15)" fill="url(#paint0_linear)" fill-opacity="0.15"/>
<rect x="0.5" y="0.5" width="204" height="63" rx="1.5" transform="translate(42 15)" stroke="#D5DCE3"/>
</g>
<path opacity="0.35" d="M0 3C0 1.34315 1.34315 0 3 0H65C66.6569 0 68 1.34315 68 3V39C68 40.6569 66.6569 42 65 42H3C1.34315 42 0 40.6569 0 39V3Z" transform="translate(70 35)" fill="#D5DCE3"/>
<path d="M-0.3 5.61C-0.3 5.50333 -0.25 5.42333 -0.15 5.37C-0.0566667 5.31 0.19 5.20667 0.59 5.06C0.816667 4.98 1.00333 4.91333 1.15 4.86C2.17667 4.47333 2.71333 4.28 2.76 4.28C2.85333 4.28 2.93 4.31667 2.99 4.39C3.05 4.45667 3.08 4.54 3.08 4.64C3.08 4.75333 3.06333 4.87 3.03 4.99C3.00333 5.10333 2.96333 5.24 2.91 5.4C2.86333 5.56 2.82667 5.69 2.8 5.79C2.92667 5.73667 3.07667 5.66667 3.25 5.58C3.43 5.48667 3.57 5.42 3.67 5.38C3.77667 5.33333 3.86 5.31 3.92 5.31C3.99333 5.31 4.05667 5.34 4.11 5.4C4.16333 5.45333 4.19 5.52333 4.19 5.61C4.19 5.65667 4.18333 5.69667 4.17 5.73C4.16333 5.75667 4.15 5.78333 4.13 5.81C4.11 5.83 4.07 5.85333 4.01 5.88C3.95667 5.90667 3.9 5.93333 3.84 5.96C3.78667 5.98667 3.7 6.03 3.58 6.09C3.46 6.14333 3.34 6.2 3.22 6.26C3.07333 6.33333 2.93333 6.40667 2.8 6.48C2.66667 6.55333 2.57667 6.60333 2.53 6.63C2.48333 6.65 2.43667 6.67 2.39 6.69C2.35 6.70333 2.31 6.71 2.27 6.71C2.19 6.71 2.12 6.68333 2.06 6.63C2.00667 6.57 1.98 6.5 1.98 6.42C1.98 6.38667 2 6.29667 2.04 6.15C2.08667 6.00333 2.14667 5.81667 2.22 5.59C2.3 5.35667 2.36 5.17333 2.4 5.04C2.26667 5.09333 2.09 5.16 1.87 5.24C1.65 5.32 1.47333 5.38333 1.34 5.43C0.466667 5.75 0.02 5.91 0 5.91C-0.0866667 5.91 -0.156667 5.88333 -0.21 5.83C-0.27 5.77 -0.3 5.69667 -0.3 5.61ZM3.61602 5.61C3.61602 5.46333 3.68935 5.36667 3.83602 5.32C4.04935 5.24667 4.30268 5.15333 4.59602 5.04C4.89602 4.92 5.12268 4.83333 5.27602 4.78C5.47602 4.71333 5.57935 4.68 5.58602 4.68C5.66602 4.68 5.73602 4.71 5.79602 4.77C5.85602 4.82333 5.88602 4.89 5.88602 4.97C5.88602 5.01 5.85602 5.12 5.79602 5.3C5.74268 5.47333 5.67268 5.69667 5.58602 5.97C5.49935 6.23667 5.42935 6.47 5.37602 6.67C5.63602 6.57667 5.86268 6.47667 6.05602 6.37C6.48935 6.13 6.92935 5.85 7.37602 5.53C7.58268 5.38333 7.72935 5.31 7.81602 5.31C7.89602 5.31 7.96268 5.34 8.01602 5.4C8.06935 5.46 8.09602 5.53 8.09602 5.61C8.09602 5.63667 8.09268 5.66333 8.08602 5.69C8.08602 5.71 8.07935 5.73 8.06602 5.75C8.05268 5.77 8.04268 5.78667 8.03602 5.8C8.02935 5.80667 8.01268 5.82 7.98602 5.84C7.96602 5.86 7.94935 5.87333 7.93602 5.88C7.92935 5.88667 7.90935 5.9 7.87602 5.92C7.84268 5.94 7.82268 5.95333 7.81602 5.96C7.74935 6 7.64935 6.06667 7.51602 6.16C7.38268 6.24667 7.28935 6.31 7.23602 6.35C7.18268 6.38333 7.10268 6.43333 6.99602 6.5C6.88935 6.56667 6.80268 6.62 6.73602 6.66C6.66935 6.7 6.58602 6.75 6.48602 6.81C6.39268 6.86333 6.29602 6.91667 6.19602 6.97C6.10268 7.01667 6.00268 7.06667 5.89602 7.12C5.65602 7.24 5.41935 7.3 5.18602 7.3C4.87935 7.3 4.72602 7.17 4.72602 6.91C4.72602 6.81667 4.73935 6.70667 4.76602 6.58C4.79935 6.44667 4.85602 6.25 4.93602 5.99C5.02268 5.73 5.07602 5.56333 5.09602 5.49C4.98268 5.53 4.82602 5.59 4.62602 5.67C4.43268 5.74333 4.27268 5.80333 4.14602 5.85C4.02602 5.89 3.94935 5.91 3.91602 5.91C3.82935 5.91 3.75935 5.88333 3.70602 5.83C3.64602 5.77 3.61602 5.69667 3.61602 5.61ZM7.5125 5.61C7.5125 5.50333 7.5625 5.42333 7.6625 5.37C7.75583 5.31 8.0025 5.20667 8.4025 5.06C8.62917 4.98 8.81583 4.91333 8.9625 4.86C9.98917 4.47333 10.5258 4.28 10.5725 4.28C10.6658 4.28 10.7425 4.31667 10.8025 4.39C10.8625 4.45667 10.8925 4.54 10.8925 4.64C10.8925 4.75333 10.8758 4.87 10.8425 4.99C10.8158 5.10333 10.7758 5.24 10.7225 5.4C10.6758 5.56 10.6392 5.69 10.6125 5.79C10.7392 5.73667 10.8892 5.66667 11.0625 5.58C11.2425 5.48667 11.3825 5.42 11.4825 5.38C11.5892 5.33333 11.6725 5.31 11.7325 5.31C11.8058 5.31 11.8692 5.34 11.9225 5.4C11.9758 5.45333 12.0025 5.52333 12.0025 5.61C12.0025 5.65667 11.9958 5.69667 11.9825 5.73C11.9758 5.75667 11.9625 5.78333 11.9425 5.81C11.9225 5.83 11.8825 5.85333 11.8225 5.88C11.7692 5.90667 11.7125 5.93333 11.6525 5.96C11.5992 5.98667 11.5125 6.03 11.3925 6.09C11.2725 6.14333 11.1525 6.2 11.0325 6.26C10.8858 6.33333 10.7458 6.40667 10.6125 6.48C10.4792 6.55333 10.3892 6.60333 10.3425 6.63C10.2958 6.65 10.2492 6.67 10.2025 6.69C10.1625 6.70333 10.1225 6.71 10.0825 6.71C10.0025 6.71 9.9325 6.68333 9.8725 6.63C9.81917 6.57 9.7925 6.5 9.7925 6.42C9.7925 6.38667 9.8125 6.29667 9.8525 6.15C9.89917 6.00333 9.95917 5.81667 10.0325 5.59C10.1125 5.35667 10.1725 5.17333 10.2125 5.04C10.0792 5.09333 9.9025 5.16 9.6825 5.24C9.4625 5.32 9.28583 5.38333 9.1525 5.43C8.27917 5.75 7.8325 5.91 7.8125 5.91C7.72583 5.91 7.65583 5.88333 7.6025 5.83C7.5425 5.77 7.5125 5.69667 7.5125 5.61ZM11.4285 5.61C11.4285 5.50333 11.4785 5.42333 11.5785 5.37C11.6718 5.31 11.9185 5.20667 12.3185 5.06C12.5452 4.98 12.7318 4.91333 12.8785 4.86C13.9052 4.47333 14.4418 4.28 14.4885 4.28C14.5818 4.28 14.6585 4.31667 14.7185 4.39C14.7785 4.45667 14.8085 4.54 14.8085 4.64C14.8085 4.75333 14.7918 4.87 14.7585 4.99C14.7318 5.10333 14.6918 5.24 14.6385 5.4C14.5918 5.56 14.5552 5.69 14.5285 5.79C14.6552 5.73667 14.8052 5.66667 14.9785 5.58C15.1585 5.48667 15.2985 5.42 15.3985 5.38C15.5052 5.33333 15.5885 5.31 15.6485 5.31C15.7218 5.31 15.7852 5.34 15.8385 5.4C15.8918 5.45333 15.9185 5.52333 15.9185 5.61C15.9185 5.65667 15.9118 5.69667 15.8985 5.73C15.8918 5.75667 15.8785 5.78333 15.8585 5.81C15.8385 5.83 15.7985 5.85333 15.7385 5.88C15.6852 5.90667 15.6285 5.93333 15.5685 5.96C15.5152 5.98667 15.4285 6.03 15.3085 6.09C15.1885 6.14333 15.0685 6.2 14.9485 6.26C14.8018 6.33333 14.6618 6.40667 14.5285 6.48C14.3952 6.55333 14.3052 6.60333 14.2585 6.63C14.2118 6.65 14.1652 6.67 14.1185 6.69C14.0785 6.70333 14.0385 6.71 13.9985 6.71C13.9185 6.71 13.8485 6.68333 13.7885 6.63C13.7352 6.57 13.7085 6.5 13.7085 6.42C13.7085 6.38667 13.7285 6.29667 13.7685 6.15C13.8152 6.00333 13.8752 5.81667 13.9485 5.59C14.0285 5.35667 14.0885 5.17333 14.1285 5.04C13.9952 5.09333 13.8185 5.16 13.5985 5.24C13.3785 5.32 13.2018 5.38333 13.0685 5.43C12.1952 5.75 11.7485 5.91 11.7285 5.91C11.6418 5.91 11.5718 5.88333 11.5185 5.83C11.4585 5.77 11.4285 5.69667 11.4285 5.61ZM15.3445 5.61C15.3445 5.47667 15.5312 5.28667 15.9045 5.04C16.1445 4.88 16.3779 4.8 16.6045 4.8C16.7512 4.8 16.8679 4.83667 16.9545 4.91C17.0412 4.98333 17.0845 5.08 17.0845 5.2C17.0845 5.31333 17.0545 5.44667 16.9945 5.6C16.9345 5.75333 16.8512 5.93333 16.7445 6.14C16.6445 6.34667 16.5679 6.52667 16.5145 6.68C16.7079 6.64667 16.9179 6.57 17.1445 6.45C17.3712 6.33 17.5379 6.23333 17.6445 6.16C17.7512 6.08 17.9245 5.95 18.1645 5.77C18.4579 5.55 18.8612 5.19333 19.3745 4.7C19.3879 4.68667 19.4112 4.66333 19.4445 4.63C19.4779 4.59 19.5012 4.56333 19.5145 4.55C19.5345 4.53667 19.5579 4.52 19.5845 4.5C19.6112 4.48 19.6379 4.46667 19.6645 4.46C19.6979 4.44667 19.7312 4.44 19.7645 4.44C19.8512 4.44 19.9245 4.47333 19.9845 4.54C20.0512 4.60667 20.0845 4.68667 20.0845 4.78C20.0845 4.86 20.0579 4.97 20.0045 5.11C19.9579 5.25 19.8879 5.43 19.7945 5.65C19.7012 5.87 19.6312 6.03667 19.5845 6.15C19.7379 6.12333 19.9612 6.00667 20.2545 5.8C20.3679 5.72 20.4645 5.64333 20.5445 5.57C20.6312 5.49667 20.6912 5.44667 20.7245 5.42C20.7579 5.38667 20.7912 5.36 20.8245 5.34C20.8645 5.32 20.9079 5.31 20.9545 5.31C21.0412 5.31 21.1145 5.34 21.1745 5.4C21.2345 5.45333 21.2645 5.52333 21.2645 5.61C21.2645 5.65 21.2545 5.69 21.2345 5.73C21.2212 5.76333 21.1945 5.8 21.1545 5.84C21.1145 5.88 21.0745 5.91667 21.0345 5.95C21.0012 5.97667 20.9479 6.02 20.8745 6.08C20.8012 6.13333 20.7412 6.18 20.6945 6.22C20.2679 6.58 19.8612 6.76 19.4745 6.76C19.1212 6.76 18.9445 6.61333 18.9445 6.32C18.9445 6.26 18.9512 6.20667 18.9645 6.16C18.9779 6.10667 18.9945 6.04667 19.0145 5.98C19.0345 5.91333 19.0512 5.85667 19.0645 5.81C18.9912 5.87 18.8479 5.99 18.6345 6.17C18.4212 6.34333 18.2345 6.48333 18.0745 6.59C17.8212 6.75667 17.6279 6.88 17.4945 6.96C17.3679 7.03333 17.2045 7.10667 17.0045 7.18C16.8045 7.25333 16.6112 7.29 16.4245 7.29C16.2379 7.29 16.0979 7.24667 16.0045 7.16C15.9112 7.08 15.8645 6.97333 15.8645 6.84C15.8645 6.72667 15.8945 6.58667 15.9545 6.42C16.0212 6.25333 16.1045 6.06667 16.2045 5.86C16.3112 5.64667 16.3745 5.51333 16.3945 5.46C16.3412 5.48 16.2479 5.53333 16.1145 5.62C16.0679 5.65333 16.0179 5.69 15.9645 5.73C15.9179 5.77 15.8812 5.80333 15.8545 5.83C15.8345 5.85 15.8045 5.87 15.7645 5.89C15.7312 5.90333 15.6912 5.91 15.6445 5.91C15.5645 5.91 15.4945 5.88 15.4345 5.82C15.3745 5.76 15.3445 5.69 15.3445 5.61ZM29.0896 4.42C29.4163 4.42 29.6729 4.45667 29.8596 4.53C30.0463 4.60333 30.1396 4.74667 30.1396 4.96C30.1396 5.07333 30.1163 5.18 30.0696 5.28C30.0296 5.37333 29.9696 5.48667 29.8896 5.62C29.8096 5.74667 29.7496 5.85333 29.7096 5.94C29.9496 5.88 30.2296 5.79667 30.5496 5.69C30.8696 5.58333 31.1329 5.49333 31.3396 5.42C31.5529 5.34667 31.6763 5.31 31.7096 5.31C31.8029 5.31 31.8763 5.34 31.9296 5.4C31.9829 5.46 32.0096 5.53333 32.0096 5.62C32.0096 5.75333 31.9096 5.85667 31.7096 5.93C30.4163 6.39 29.6296 6.62 29.3496 6.62C29.2363 6.62 29.1396 6.58 29.0596 6.5C28.9796 6.42 28.9396 6.32667 28.9396 6.22C28.9396 6.12667 28.9696 6.02 29.0296 5.9C29.0896 5.78 29.1696 5.63667 29.2696 5.47C29.3763 5.30333 29.4563 5.16667 29.5096 5.06C29.2963 5.03333 29.1563 5.02 29.0896 5.02C28.7629 5.02 28.3063 5.09333 27.7196 5.24C27.5863 5.26667 27.4663 5.3 27.3596 5.34C27.2529 5.37333 27.1263 5.42 26.9796 5.48C26.8396 5.53333 26.7229 5.57667 26.6296 5.61C26.5763 5.63 26.4896 5.66667 26.3696 5.72C26.2496 5.77333 26.1429 5.82 26.0496 5.86C25.9563 5.89333 25.8896 5.91 25.8496 5.91C25.7696 5.91 25.6996 5.88 25.6396 5.82C25.5796 5.76 25.5496 5.69 25.5496 5.61C25.5496 5.52333 25.5729 5.46 25.6196 5.42C25.6596 5.37333 25.7263 5.33 25.8196 5.29C26.5596 4.97667 27.3163 4.72333 28.0896 4.53C28.3829 4.45667 28.7163 4.42 29.0896 4.42ZM31.409 5.61C31.409 5.46333 31.4823 5.36667 31.629 5.32C31.8423 5.24667 32.0957 5.15333 32.389 5.04C32.689 4.92 32.9157 4.83333 33.069 4.78C33.269 4.71333 33.3723 4.68 33.379 4.68C33.459 4.68 33.529 4.71 33.589 4.77C33.649 4.82333 33.679 4.89 33.679 4.97C33.679 5.01 33.649 5.12 33.589 5.3C33.5357 5.47333 33.4657 5.69667 33.379 5.97C33.2923 6.23667 33.2223 6.47 33.169 6.67C33.429 6.57667 33.6557 6.47667 33.849 6.37C34.2823 6.13 34.7223 5.85 35.169 5.53C35.3757 5.38333 35.5223 5.31 35.609 5.31C35.689 5.31 35.7557 5.34 35.809 5.4C35.8623 5.46 35.889 5.53 35.889 5.61C35.889 5.63667 35.8857 5.66333 35.879 5.69C35.879 5.71 35.8723 5.73 35.859 5.75C35.8457 5.77 35.8357 5.78667 35.829 5.8C35.8223 5.80667 35.8057 5.82 35.779 5.84C35.759 5.86 35.7423 5.87333 35.729 5.88C35.7223 5.88667 35.7023 5.9 35.669 5.92C35.6357 5.94 35.6157 5.95333 35.609 5.96C35.5423 6 35.4423 6.06667 35.309 6.16C35.1757 6.24667 35.0823 6.31 35.029 6.35C34.9757 6.38333 34.8957 6.43333 34.789 6.5C34.6823 6.56667 34.5957 6.62 34.529 6.66C34.4623 6.7 34.379 6.75 34.279 6.81C34.1857 6.86333 34.089 6.91667 33.989 6.97C33.8957 7.01667 33.7957 7.06667 33.689 7.12C33.449 7.24 33.2123 7.3 32.979 7.3C32.6723 7.3 32.519 7.17 32.519 6.91C32.519 6.81667 32.5323 6.70667 32.559 6.58C32.5923 6.44667 32.649 6.25 32.729 5.99C32.8157 5.73 32.869 5.56333 32.889 5.49C32.7757 5.53 32.619 5.59 32.419 5.67C32.2257 5.74333 32.0657 5.80333 31.939 5.85C31.819 5.89 31.7423 5.91 31.709 5.91C31.6223 5.91 31.5523 5.88333 31.499 5.83C31.439 5.77 31.409 5.69667 31.409 5.61ZM35.3055 5.61C35.3055 5.56333 35.3121 5.52667 35.3255 5.5C35.3321 5.47333 35.3521 5.44 35.3855 5.4C35.4188 5.36 35.4555 5.32667 35.4955 5.3C35.5288 5.26667 35.5921 5.21333 35.6855 5.14C35.7788 5.06 35.8688 4.98 35.9555 4.9C36.4621 4.44 36.8888 4.21 37.2355 4.21C37.3955 4.21 37.5288 4.25667 37.6355 4.35C37.7488 4.43667 37.8055 4.55 37.8055 4.69C37.8055 4.79667 37.7821 4.90333 37.7355 5.01C37.6888 5.11 37.6155 5.23 37.5155 5.37C37.4155 5.51 37.3455 5.61333 37.3055 5.68C37.4921 5.62 37.6721 5.55667 37.8455 5.49C38.0188 5.41667 38.1388 5.37 38.2055 5.35C38.2788 5.32333 38.3421 5.31 38.3955 5.31C38.4688 5.31 38.5355 5.34 38.5955 5.4C38.6555 5.46 38.6855 5.53 38.6855 5.61C38.6855 5.77 38.5488 5.89 38.2755 5.97C38.1555 6.00333 37.9855 6.06333 37.7655 6.15C37.5455 6.23667 37.4021 6.29 37.3355 6.31C37.2888 6.32333 37.2388 6.34 37.1855 6.36C37.1321 6.38 37.0855 6.39667 37.0455 6.41C37.0121 6.41667 36.9721 6.42 36.9255 6.42C36.8121 6.42 36.7155 6.37667 36.6355 6.29C36.5555 6.20333 36.5155 6.10333 36.5155 5.99C36.5155 5.91 36.5355 5.82 36.5755 5.72C36.6221 5.61333 36.6688 5.52333 36.7155 5.45C36.7688 5.37 36.8421 5.26333 36.9355 5.13C37.0288 4.99667 37.0955 4.89667 37.1355 4.83C37.0021 4.85 36.7855 4.98667 36.4855 5.24C36.3588 5.34667 36.2355 5.45333 36.1155 5.56C36.0021 5.66667 35.9221 5.74 35.8755 5.78C35.8355 5.81333 35.7921 5.84333 35.7455 5.87C35.6988 5.89667 35.6521 5.91 35.6055 5.91C35.5188 5.91 35.4488 5.88333 35.3955 5.83C35.3355 5.77 35.3055 5.69667 35.3055 5.61ZM41.6287 4.42C41.9553 4.42 42.212 4.45667 42.3987 4.53C42.5853 4.60333 42.6787 4.74667 42.6787 4.96C42.6787 5.07333 42.6553 5.18 42.6087 5.28C42.5687 5.37333 42.5087 5.48667 42.4287 5.62C42.3487 5.74667 42.2887 5.85333 42.2487 5.94C42.4887 5.88 42.7687 5.79667 43.0887 5.69C43.4087 5.58333 43.672 5.49333 43.8787 5.42C44.092 5.34667 44.2153 5.31 44.2487 5.31C44.342 5.31 44.4153 5.34 44.4687 5.4C44.522 5.46 44.5487 5.53333 44.5487 5.62C44.5487 5.75333 44.4487 5.85667 44.2487 5.93C42.9553 6.39 42.1687 6.62 41.8887 6.62C41.7753 6.62 41.6787 6.58 41.5987 6.5C41.5187 6.42 41.4787 6.32667 41.4787 6.22C41.4787 6.12667 41.5087 6.02 41.5687 5.9C41.6287 5.78 41.7087 5.63667 41.8087 5.47C41.9153 5.30333 41.9953 5.16667 42.0487 5.06C41.8353 5.03333 41.6953 5.02 41.6287 5.02C41.302 5.02 40.8453 5.09333 40.2587 5.24C40.1253 5.26667 40.0053 5.3 39.8987 5.34C39.792 5.37333 39.6653 5.42 39.5187 5.48C39.3787 5.53333 39.262 5.57667 39.1687 5.61C39.1153 5.63 39.0287 5.66667 38.9087 5.72C38.7887 5.77333 38.682 5.82 38.5887 5.86C38.4953 5.89333 38.4287 5.91 38.3887 5.91C38.3087 5.91 38.2387 5.88 38.1787 5.82C38.1187 5.76 38.0887 5.69 38.0887 5.61C38.0887 5.52333 38.112 5.46 38.1587 5.42C38.1987 5.37333 38.2653 5.33 38.3587 5.29C39.0987 4.97667 39.8553 4.72333 40.6287 4.53C40.922 4.45667 41.2553 4.42 41.6287 4.42ZM3.24 13.42C3.56667 13.42 3.82333 13.4567 4.01 13.53C4.19667 13.6033 4.29 13.7467 4.29 13.96C4.29 14.0733 4.26667 14.18 4.22 14.28C4.18 14.3733 4.12 14.4867 4.04 14.62C3.96 14.7467 3.9 14.8533 3.86 14.94C4.1 14.88 4.38 14.7967 4.7 14.69C5.02 14.5833 5.28333 14.4933 5.49 14.42C5.70333 14.3467 5.82667 14.31 5.86 14.31C5.95333 14.31 6.02667 14.34 6.08 14.4C6.13333 14.46 6.16 14.5333 6.16 14.62C6.16 14.7533 6.06 14.8567 5.86 14.93C4.56667 15.39 3.78 15.62 3.5 15.62C3.38667 15.62 3.29 15.58 3.21 15.5C3.13 15.42 3.09 15.3267 3.09 15.22C3.09 15.1267 3.12 15.02 3.18 14.9C3.24 14.78 3.32 14.6367 3.42 14.47C3.52667 14.3033 3.60667 14.1667 3.66 14.06C3.44667 14.0333 3.30667 14.02 3.24 14.02C2.91333 14.02 2.45667 14.0933 1.87 14.24C1.73667 14.2667 1.61667 14.3 1.51 14.34C1.40333 14.3733 1.27667 14.42 1.13 14.48C0.99 14.5333 0.873333 14.5767 0.78 14.61C0.726667 14.63 0.64 14.6667 0.52 14.72C0.4 14.7733 0.293333 14.82 0.2 14.86C0.106667 14.8933 0.04 14.91 0 14.91C-0.08 14.91 -0.15 14.88 -0.21 14.82C-0.27 14.76 -0.3 14.69 -0.3 14.61C-0.3 14.5233 -0.276667 14.46 -0.23 14.42C-0.19 14.3733 -0.123333 14.33 -0.03 14.29C0.71 13.9767 1.46667 13.7233 2.24 13.53C2.53333 13.4567 2.86667 13.42 3.24 13.42ZM5.55938 14.61C5.55938 14.5033 5.60938 14.4233 5.70938 14.37C5.80271 14.31 6.04938 14.2067 6.44938 14.06C6.67604 13.98 6.86271 13.9133 7.00938 13.86C8.03604 13.4733 8.57271 13.28 8.61937 13.28C8.71271 13.28 8.78937 13.3167 8.84937 13.39C8.90937 13.4567 8.93937 13.54 8.93937 13.64C8.93937 13.7533 8.92271 13.87 8.88938 13.99C8.86271 14.1033 8.82271 14.24 8.76938 14.4C8.72271 14.56 8.68604 14.69 8.65938 14.79C8.78604 14.7367 8.93604 14.6667 9.10937 14.58C9.28937 14.4867 9.42938 14.42 9.52938 14.38C9.63604 14.3333 9.71937 14.31 9.77937 14.31C9.85271 14.31 9.91604 14.34 9.96938 14.4C10.0227 14.4533 10.0494 14.5233 10.0494 14.61C10.0494 14.6567 10.0427 14.6967 10.0294 14.73C10.0227 14.7567 10.0094 14.7833 9.98937 14.81C9.96937 14.83 9.92937 14.8533 9.86937 14.88C9.81604 14.9067 9.75938 14.9333 9.69938 14.96C9.64604 14.9867 9.55937 15.03 9.43938 15.09C9.31938 15.1433 9.19938 15.2 9.07937 15.26C8.93271 15.3333 8.79271 15.4067 8.65938 15.48C8.52604 15.5533 8.43604 15.6033 8.38937 15.63C8.34271 15.65 8.29604 15.67 8.24937 15.69C8.20937 15.7033 8.16937 15.71 8.12937 15.71C8.04938 15.71 7.97938 15.6833 7.91938 15.63C7.86604 15.57 7.83937 15.5 7.83937 15.42C7.83937 15.3867 7.85937 15.2967 7.89937 15.15C7.94604 15.0033 8.00604 14.8167 8.07938 14.59C8.15937 14.3567 8.21937 14.1733 8.25937 14.04C8.12604 14.0933 7.94938 14.16 7.72938 14.24C7.50938 14.32 7.33271 14.3833 7.19938 14.43C6.32604 14.75 5.87938 14.91 5.85938 14.91C5.77271 14.91 5.70271 14.8833 5.64938 14.83C5.58938 14.77 5.55938 14.6967 5.55938 14.61ZM13.0154 13.42C13.3421 13.42 13.5987 13.4567 13.7854 13.53C13.9721 13.6033 14.0654 13.7467 14.0654 13.96C14.0654 14.0733 14.0421 14.18 13.9954 14.28C13.9554 14.3733 13.8954 14.4867 13.8154 14.62C13.7354 14.7467 13.6754 14.8533 13.6354 14.94C13.8754 14.88 14.1554 14.7967 14.4754 14.69C14.7954 14.5833 15.0587 14.4933 15.2654 14.42C15.4787 14.3467 15.6021 14.31 15.6354 14.31C15.7287 14.31 15.8021 14.34 15.8554 14.4C15.9087 14.46 15.9354 14.5333 15.9354 14.62C15.9354 14.7533 15.8354 14.8567 15.6354 14.93C14.3421 15.39 13.5554 15.62 13.2754 15.62C13.1621 15.62 13.0654 15.58 12.9854 15.5C12.9054 15.42 12.8654 15.3267 12.8654 15.22C12.8654 15.1267 12.8954 15.02 12.9554 14.9C13.0154 14.78 13.0954 14.6367 13.1954 14.47C13.3021 14.3033 13.3821 14.1667 13.4354 14.06C13.2221 14.0333 13.0821 14.02 13.0154 14.02C12.6887 14.02 12.2321 14.0933 11.6454 14.24C11.5121 14.2667 11.3921 14.3 11.2854 14.34C11.1787 14.3733 11.0521 14.42 10.9054 14.48C10.7654 14.5333 10.6487 14.5767 10.5554 14.61C10.5021 14.63 10.4154 14.6667 10.2954 14.72C10.1754 14.7733 10.0687 14.82 9.97539 14.86C9.88206 14.8933 9.81539 14.91 9.77539 14.91C9.69539 14.91 9.62539 14.88 9.56539 14.82C9.50539 14.76 9.47539 14.69 9.47539 14.61C9.47539 14.5233 9.49872 14.46 9.54539 14.42C9.58539 14.3733 9.65206 14.33 9.74539 14.29C10.4854 13.9767 11.2421 13.7233 12.0154 13.53C12.3087 13.4567 12.6421 13.42 13.0154 13.42ZM18.8748 13.42C19.2014 13.42 19.4581 13.4567 19.6448 13.53C19.8314 13.6033 19.9248 13.7467 19.9248 13.96C19.9248 14.0733 19.9014 14.18 19.8548 14.28C19.8148 14.3733 19.7548 14.4867 19.6748 14.62C19.5948 14.7467 19.5348 14.8533 19.4948 14.94C19.7348 14.88 20.0148 14.7967 20.3348 14.69C20.6548 14.5833 20.9181 14.4933 21.1248 14.42C21.3381 14.3467 21.4614 14.31 21.4948 14.31C21.5881 14.31 21.6614 14.34 21.7148 14.4C21.7681 14.46 21.7948 14.5333 21.7948 14.62C21.7948 14.7533 21.6948 14.8567 21.4948 14.93C20.2014 15.39 19.4148 15.62 19.1348 15.62C19.0214 15.62 18.9248 15.58 18.8448 15.5C18.7648 15.42 18.7248 15.3267 18.7248 15.22C18.7248 15.1267 18.7548 15.02 18.8148 14.9C18.8748 14.78 18.9548 14.6367 19.0548 14.47C19.1614 14.3033 19.2414 14.1667 19.2948 14.06C19.0814 14.0333 18.9414 14.02 18.8748 14.02C18.5481 14.02 18.0914 14.0933 17.5048 14.24C17.3714 14.2667 17.2514 14.3 17.1448 14.34C17.0381 14.3733 16.9114 14.42 16.7648 14.48C16.6248 14.5333 16.5081 14.5767 16.4148 14.61C16.3614 14.63 16.2748 14.6667 16.1548 14.72C16.0348 14.7733 15.9281 14.82 15.8348 14.86C15.7414 14.8933 15.6748 14.91 15.6348 14.91C15.5548 14.91 15.4848 14.88 15.4248 14.82C15.3648 14.76 15.3348 14.69 15.3348 14.61C15.3348 14.5233 15.3581 14.46 15.4048 14.42C15.4448 14.3733 15.5114 14.33 15.6048 14.29C16.3448 13.9767 17.1014 13.7233 17.8748 13.53C18.1681 13.4567 18.5014 13.42 18.8748 13.42ZM21.1941 14.61C21.1941 14.5033 21.2441 14.4233 21.3441 14.37C21.4375 14.31 21.6841 14.2067 22.0841 14.06C22.3108 13.98 22.4975 13.9133 22.6441 13.86C23.6708 13.4733 24.2075 13.28 24.2541 13.28C24.3475 13.28 24.4241 13.3167 24.4841 13.39C24.5441 13.4567 24.5741 13.54 24.5741 13.64C24.5741 13.7533 24.5575 13.87 24.5241 13.99C24.4975 14.1033 24.4575 14.24 24.4041 14.4C24.3575 14.56 24.3208 14.69 24.2941 14.79C24.4208 14.7367 24.5708 14.6667 24.7441 14.58C24.9241 14.4867 25.0641 14.42 25.1641 14.38C25.2708 14.3333 25.3541 14.31 25.4141 14.31C25.4875 14.31 25.5508 14.34 25.6041 14.4C25.6575 14.4533 25.6841 14.5233 25.6841 14.61C25.6841 14.6567 25.6775 14.6967 25.6641 14.73C25.6575 14.7567 25.6441 14.7833 25.6241 14.81C25.6041 14.83 25.5641 14.8533 25.5041 14.88C25.4508 14.9067 25.3941 14.9333 25.3341 14.96C25.2808 14.9867 25.1941 15.03 25.0741 15.09C24.9541 15.1433 24.8341 15.2 24.7141 15.26C24.5675 15.3333 24.4275 15.4067 24.2941 15.48C24.1608 15.5533 24.0708 15.6033 24.0241 15.63C23.9775 15.65 23.9308 15.67 23.8841 15.69C23.8441 15.7033 23.8041 15.71 23.7641 15.71C23.6841 15.71 23.6141 15.6833 23.5541 15.63C23.5008 15.57 23.4741 15.5 23.4741 15.42C23.4741 15.3867 23.4941 15.2967 23.5341 15.15C23.5808 15.0033 23.6408 14.8167 23.7141 14.59C23.7941 14.3567 23.8541 14.1733 23.8941 14.04C23.7608 14.0933 23.5841 14.16 23.3641 14.24C23.1441 14.32 22.9675 14.3833 22.8341 14.43C21.9608 14.75 21.5141 14.91 21.4941 14.91C21.4075 14.91 21.3375 14.8833 21.2841 14.83C21.2241 14.77 21.1941 14.6967 21.1941 14.61ZM28.6502 13.42C28.9768 13.42 29.2335 13.4567 29.4202 13.53C29.6068 13.6033 29.7002 13.7467 29.7002 13.96C29.7002 14.0733 29.6768 14.18 29.6302 14.28C29.5902 14.3733 29.5302 14.4867 29.4502 14.62C29.3702 14.7467 29.3102 14.8533 29.2702 14.94C29.5102 14.88 29.7902 14.7967 30.1102 14.69C30.4302 14.5833 30.6935 14.4933 30.9002 14.42C31.1135 14.3467 31.2368 14.31 31.2702 14.31C31.3635 14.31 31.4368 14.34 31.4902 14.4C31.5435 14.46 31.5702 14.5333 31.5702 14.62C31.5702 14.7533 31.4702 14.8567 31.2702 14.93C29.9768 15.39 29.1902 15.62 28.9102 15.62C28.7968 15.62 28.7002 15.58 28.6202 15.5C28.5402 15.42 28.5002 15.3267 28.5002 15.22C28.5002 15.1267 28.5302 15.02 28.5902 14.9C28.6502 14.78 28.7302 14.6367 28.8302 14.47C28.9368 14.3033 29.0168 14.1667 29.0702 14.06C28.8568 14.0333 28.7168 14.02 28.6502 14.02C28.3235 14.02 27.8668 14.0933 27.2802 14.24C27.1468 14.2667 27.0268 14.3 26.9202 14.34C26.8135 14.3733 26.6868 14.42 26.5402 14.48C26.4002 14.5333 26.2835 14.5767 26.1902 14.61C26.1368 14.63 26.0502 14.6667 25.9302 14.72C25.8102 14.7733 25.7035 14.82 25.6102 14.86C25.5168 14.8933 25.4502 14.91 25.4102 14.91C25.3302 14.91 25.2602 14.88 25.2002 14.82C25.1402 14.76 25.1102 14.69 25.1102 14.61C25.1102 14.5233 25.1335 14.46 25.1802 14.42C25.2202 14.3733 25.2868 14.33 25.3802 14.29C26.1202 13.9767 26.8768 13.7233 27.6502 13.53C27.9435 13.4567 28.2768 13.42 28.6502 13.42ZM35.8328 14.61C35.8328 14.5033 35.8828 14.4233 35.9828 14.37C36.0761 14.31 36.3228 14.2067 36.7228 14.06C36.9495 13.98 37.1361 13.9133 37.2828 13.86C38.3095 13.4733 38.8461 13.28 38.8928 13.28C38.9861 13.28 39.0628 13.3167 39.1228 13.39C39.1828 13.4567 39.2128 13.54 39.2128 13.64C39.2128 13.7533 39.1961 13.87 39.1628 13.99C39.1361 14.1033 39.0961 14.24 39.0428 14.4C38.9961 14.56 38.9595 14.69 38.9328 14.79C39.0595 14.7367 39.2095 14.6667 39.3828 14.58C39.5628 14.4867 39.7028 14.42 39.8028 14.38C39.9095 14.3333 39.9928 14.31 40.0528 14.31C40.1261 14.31 40.1895 14.34 40.2428 14.4C40.2961 14.4533 40.3228 14.5233 40.3228 14.61C40.3228 14.6567 40.3161 14.6967 40.3028 14.73C40.2961 14.7567 40.2828 14.7833 40.2628 14.81C40.2428 14.83 40.2028 14.8533 40.1428 14.88C40.0895 14.9067 40.0328 14.9333 39.9728 14.96C39.9195 14.9867 39.8328 15.03 39.7128 15.09C39.5928 15.1433 39.4728 15.2 39.3528 15.26C39.2061 15.3333 39.0661 15.4067 38.9328 15.48C38.7995 15.5533 38.7095 15.6033 38.6628 15.63C38.6161 15.65 38.5695 15.67 38.5228 15.69C38.4828 15.7033 38.4428 15.71 38.4028 15.71C38.3228 15.71 38.2528 15.6833 38.1928 15.63C38.1395 15.57 38.1128 15.5 38.1128 15.42C38.1128 15.3867 38.1328 15.2967 38.1728 15.15C38.2195 15.0033 38.2795 14.8167 38.3528 14.59C38.4328 14.3567 38.4928 14.1733 38.5328 14.04C38.3995 14.0933 38.2228 14.16 38.0028 14.24C37.7828 14.32 37.6061 14.3833 37.4728 14.43C36.5995 14.75 36.1528 14.91 36.1328 14.91C36.0461 14.91 35.9761 14.8833 35.9228 14.83C35.8628 14.77 35.8328 14.6967 35.8328 14.61ZM43.2888 13.42C43.6155 13.42 43.8722 13.4567 44.0588 13.53C44.2455 13.6033 44.3388 13.7467 44.3388 13.96C44.3388 14.0733 44.3155 14.18 44.2688 14.28C44.2288 14.3733 44.1688 14.4867 44.0888 14.62C44.0088 14.7467 43.9488 14.8533 43.9088 14.94C44.1488 14.88 44.4288 14.7967 44.7488 14.69C45.0688 14.5833 45.3322 14.4933 45.5388 14.42C45.7522 14.3467 45.8755 14.31 45.9088 14.31C46.0022 14.31 46.0755 14.34 46.1288 14.4C46.1822 14.46 46.2088 14.5333 46.2088 14.62C46.2088 14.7533 46.1088 14.8567 45.9088 14.93C44.6155 15.39 43.8288 15.62 43.5488 15.62C43.4355 15.62 43.3388 15.58 43.2588 15.5C43.1788 15.42 43.1388 15.3267 43.1388 15.22C43.1388 15.1267 43.1688 15.02 43.2288 14.9C43.2888 14.78 43.3688 14.6367 43.4688 14.47C43.5755 14.3033 43.6555 14.1667 43.7088 14.06C43.4955 14.0333 43.3555 14.02 43.2888 14.02C42.9622 14.02 42.5055 14.0933 41.9188 14.24C41.7855 14.2667 41.6655 14.3 41.5588 14.34C41.4522 14.3733 41.3255 14.42 41.1788 14.48C41.0388 14.5333 40.9222 14.5767 40.8288 14.61C40.7755 14.63 40.6888 14.6667 40.5688 14.72C40.4488 14.7733 40.3422 14.82 40.2488 14.86C40.1555 14.8933 40.0888 14.91 40.0488 14.91C39.9688 14.91 39.8988 14.88 39.8388 14.82C39.7788 14.76 39.7488 14.69 39.7488 14.61C39.7488 14.5233 39.7722 14.46 39.8188 14.42C39.8588 14.3733 39.9255 14.33 40.0188 14.29C40.7588 13.9767 41.5155 13.7233 42.2888 13.53C42.5822 13.4567 42.9155 13.42 43.2888 13.42ZM45.6082 14.61C45.6082 14.4767 45.7949 14.2867 46.1682 14.04C46.4082 13.88 46.6415 13.8 46.8682 13.8C47.0149 13.8 47.1315 13.8367 47.2182 13.91C47.3049 13.9833 47.3482 14.08 47.3482 14.2C47.3482 14.3133 47.3182 14.4467 47.2582 14.6C47.1982 14.7533 47.1149 14.9333 47.0082 15.14C46.9082 15.3467 46.8315 15.5267 46.7782 15.68C46.9715 15.6467 47.1815 15.57 47.4082 15.45C47.6349 15.33 47.8015 15.2333 47.9082 15.16C48.0149 15.08 48.1882 14.95 48.4282 14.77C48.7215 14.55 49.1249 14.1933 49.6382 13.7C49.6515 13.6867 49.6749 13.6633 49.7082 13.63C49.7415 13.59 49.7649 13.5633 49.7782 13.55C49.7982 13.5367 49.8215 13.52 49.8482 13.5C49.8749 13.48 49.9015 13.4667 49.9282 13.46C49.9615 13.4467 49.9949 13.44 50.0282 13.44C50.1149 13.44 50.1882 13.4733 50.2482 13.54C50.3149 13.6067 50.3482 13.6867 50.3482 13.78C50.3482 13.86 50.3215 13.97 50.2682 14.11C50.2215 14.25 50.1515 14.43 50.0582 14.65C49.9649 14.87 49.8949 15.0367 49.8482 15.15C50.0015 15.1233 50.2249 15.0067 50.5182 14.8C50.6315 14.72 50.7282 14.6433 50.8082 14.57C50.8949 14.4967 50.9549 14.4467 50.9882 14.42C51.0215 14.3867 51.0549 14.36 51.0882 14.34C51.1282 14.32 51.1715 14.31 51.2182 14.31C51.3049 14.31 51.3782 14.34 51.4382 14.4C51.4982 14.4533 51.5282 14.5233 51.5282 14.61C51.5282 14.65 51.5182 14.69 51.4982 14.73C51.4849 14.7633 51.4582 14.8 51.4182 14.84C51.3782 14.88 51.3382 14.9167 51.2982 14.95C51.2649 14.9767 51.2115 15.02 51.1382 15.08C51.0649 15.1333 51.0049 15.18 50.9582 15.22C50.5315 15.58 50.1249 15.76 49.7382 15.76C49.3849 15.76 49.2082 15.6133 49.2082 15.32C49.2082 15.26 49.2149 15.2067 49.2282 15.16C49.2415 15.1067 49.2582 15.0467 49.2782 14.98C49.2982 14.9133 49.3149 14.8567 49.3282 14.81C49.2549 14.87 49.1115 14.99 48.8982 15.17C48.6849 15.3433 48.4982 15.4833 48.3382 15.59C48.0849 15.7567 47.8915 15.88 47.7582 15.96C47.6315 16.0333 47.4682 16.1067 47.2682 16.18C47.0682 16.2533 46.8749 16.29 46.6882 16.29C46.5015 16.29 46.3615 16.2467 46.2682 16.16C46.1749 16.08 46.1282 15.9733 46.1282 15.84C46.1282 15.7267 46.1582 15.5867 46.2182 15.42C46.2849 15.2533 46.3682 15.0667 46.4682 14.86C46.5749 14.6467 46.6382 14.5133 46.6582 14.46C46.6049 14.48 46.5115 14.5333 46.3782 14.62C46.3315 14.6533 46.2815 14.69 46.2282 14.73C46.1815 14.77 46.1449 14.8033 46.1182 14.83C46.0982 14.85 46.0682 14.87 46.0282 14.89C45.9949 14.9033 45.9549 14.91 45.9082 14.91C45.8282 14.91 45.7582 14.88 45.6982 14.82C45.6382 14.76 45.6082 14.69 45.6082 14.61ZM50.95 14.61C50.95 14.5633 50.9567 14.5267 50.97 14.5C50.9767 14.4733 50.9967 14.44 51.03 14.4C51.0633 14.36 51.1 14.3267 51.14 14.3C51.1733 14.2667 51.2367 14.2133 51.33 14.14C51.4233 14.06 51.5133 13.98 51.6 13.9C52.1067 13.44 52.5333 13.21 52.88 13.21C53.04 13.21 53.1733 13.2567 53.28 13.35C53.3933 13.4367 53.45 13.55 53.45 13.69C53.45 13.7967 53.4267 13.9033 53.38 14.01C53.3333 14.11 53.26 14.23 53.16 14.37C53.06 14.51 52.99 14.6133 52.95 14.68C53.1367 14.62 53.3167 14.5567 53.49 14.49C53.6633 14.4167 53.7833 14.37 53.85 14.35C53.9233 14.3233 53.9867 14.31 54.04 14.31C54.1133 14.31 54.18 14.34 54.24 14.4C54.3 14.46 54.33 14.53 54.33 14.61C54.33 14.77 54.1933 14.89 53.92 14.97C53.8 15.0033 53.63 15.0633 53.41 15.15C53.19 15.2367 53.0467 15.29 52.98 15.31C52.9333 15.3233 52.8833 15.34 52.83 15.36C52.7767 15.38 52.73 15.3967 52.69 15.41C52.6567 15.4167 52.6167 15.42 52.57 15.42C52.4567 15.42 52.36 15.3767 52.28 15.29C52.2 15.2033 52.16 15.1033 52.16 14.99C52.16 14.91 52.18 14.82 52.22 14.72C52.2667 14.6133 52.3133 14.5233 52.36 14.45C52.4133 14.37 52.4867 14.2633 52.58 14.13C52.6733 13.9967 52.74 13.8967 52.78 13.83C52.6467 13.85 52.43 13.9867 52.13 14.24C52.0033 14.3467 51.88 14.4533 51.76 14.56C51.6467 14.6667 51.5667 14.74 51.52 14.78C51.48 14.8133 51.4367 14.8433 51.39 14.87C51.3433 14.8967 51.2967 14.91 51.25 14.91C51.1633 14.91 51.0933 14.8833 51.04 14.83C50.98 14.77 50.95 14.6967 50.95 14.61ZM55.2432 14.98C55.4099 14.98 55.5432 15.0367 55.6432 15.15C55.7432 15.2567 55.7932 15.3733 55.7932 15.5C55.7932 15.6867 55.7365 15.83 55.6232 15.93C55.5099 16.03 55.3699 16.08 55.2032 16.08C55.0232 16.08 54.8832 16.0333 54.7832 15.94C54.6832 15.84 54.6332 15.71 54.6332 15.55C54.6332 15.39 54.6899 15.2567 54.8032 15.15C54.9165 15.0367 55.0632 14.98 55.2432 14.98ZM-0.3 23.61C-0.3 23.4767 -0.113333 23.2867 0.26 23.04C0.5 22.88 0.733333 22.8 0.96 22.8C1.10667 22.8 1.22333 22.8367 1.31 22.91C1.39667 22.9833 1.44 23.08 1.44 23.2C1.44 23.3133 1.41 23.4467 1.35 23.6C1.29 23.7533 1.20667 23.9333 1.1 24.14C1 24.3467 0.923333 24.5267 0.87 24.68C1.06333 24.6467 1.27333 24.57 1.5 24.45C1.72667 24.33 1.89333 24.2333 2 24.16C2.10667 24.08 2.28 23.95 2.52 23.77C2.81333 23.55 3.21667 23.1933 3.73 22.7C3.74333 22.6867 3.76667 22.6633 3.8 22.63C3.83333 22.59 3.85667 22.5633 3.87 22.55C3.89 22.5367 3.91333 22.52 3.94 22.5C3.96667 22.48 3.99333 22.4667 4.02 22.46C4.05333 22.4467 4.08667 22.44 4.12 22.44C4.20667 22.44 4.28 22.4733 4.34 22.54C4.40667 22.6067 4.44 22.6867 4.44 22.78C4.44 22.86 4.41333 22.97 4.36 23.11C4.31333 23.25 4.24333 23.43 4.15 23.65C4.05667 23.87 3.98667 24.0367 3.94 24.15C4.09333 24.1233 4.31667 24.0067 4.61 23.8C4.72333 23.72 4.82 23.6433 4.9 23.57C4.98667 23.4967 5.04667 23.4467 5.08 23.42C5.11333 23.3867 5.14667 23.36 5.18 23.34C5.22 23.32 5.26333 23.31 5.31 23.31C5.39667 23.31 5.47 23.34 5.53 23.4C5.59 23.4533 5.62 23.5233 5.62 23.61C5.62 23.65 5.61 23.69 5.59 23.73C5.57667 23.7633 5.55 23.8 5.51 23.84C5.47 23.88 5.43 23.9167 5.39 23.95C5.35667 23.9767 5.30333 24.02 5.23 24.08C5.15667 24.1333 5.09667 24.18 5.05 24.22C4.62333 24.58 4.21667 24.76 3.83 24.76C3.47667 24.76 3.3 24.6133 3.3 24.32C3.3 24.26 3.30667 24.2067 3.32 24.16C3.33333 24.1067 3.35 24.0467 3.37 23.98C3.39 23.9133 3.40667 23.8567 3.42 23.81C3.34667 23.87 3.20333 23.99 2.99 24.17C2.77667 24.3433 2.59 24.4833 2.43 24.59C2.17667 24.7567 1.98333 24.88 1.85 24.96C1.72333 25.0333 1.56 25.1067 1.36 25.18C1.16 25.2533 0.966667 25.29 0.78 25.29C0.593333 25.29 0.453333 25.2467 0.36 25.16C0.266667 25.08 0.22 24.9733 0.22 24.84C0.22 24.7267 0.25 24.5867 0.31 24.42C0.376667 24.2533 0.46 24.0667 0.56 23.86C0.666667 23.6467 0.73 23.5133 0.75 23.46C0.696667 23.48 0.603333 23.5333 0.47 23.62C0.423333 23.6533 0.373333 23.69 0.32 23.73C0.273333 23.77 0.236667 23.8033 0.21 23.83C0.19 23.85 0.16 23.87 0.12 23.89C0.0866667 23.9033 0.0466667 23.91 0 23.91C-0.08 23.91 -0.15 23.88 -0.21 23.82C-0.27 23.76 -0.3 23.69 -0.3 23.61ZM8.5818 22.42C8.90846 22.42 9.16513 22.4567 9.3518 22.53C9.53846 22.6033 9.6318 22.7467 9.6318 22.96C9.6318 23.0733 9.60846 23.18 9.5618 23.28C9.5218 23.3733 9.4618 23.4867 9.3818 23.62C9.3018 23.7467 9.2418 23.8533 9.2018 23.94C9.4418 23.88 9.7218 23.7967 10.0418 23.69C10.3618 23.5833 10.6251 23.4933 10.8318 23.42C11.0451 23.3467 11.1685 23.31 11.2018 23.31C11.2951 23.31 11.3685 23.34 11.4218 23.4C11.4751 23.46 11.5018 23.5333 11.5018 23.62C11.5018 23.7533 11.4018 23.8567 11.2018 23.93C9.90846 24.39 9.1218 24.62 8.8418 24.62C8.72846 24.62 8.6318 24.58 8.5518 24.5C8.4718 24.42 8.4318 24.3267 8.4318 24.22C8.4318 24.1267 8.4618 24.02 8.5218 23.9C8.5818 23.78 8.6618 23.6367 8.7618 23.47C8.86846 23.3033 8.94846 23.1667 9.0018 23.06C8.78846 23.0333 8.64846 23.02 8.5818 23.02C8.25513 23.02 7.79846 23.0933 7.2118 23.24C7.07846 23.2667 6.95846 23.3 6.8518 23.34C6.74513 23.3733 6.61846 23.42 6.4718 23.48C6.3318 23.5333 6.21513 23.5767 6.1218 23.61C6.06846 23.63 5.9818 23.6667 5.8618 23.72C5.7418 23.7733 5.63513 23.82 5.5418 23.86C5.44846 23.8933 5.3818 23.91 5.3418 23.91C5.2618 23.91 5.1918 23.88 5.1318 23.82C5.0718 23.76 5.0418 23.69 5.0418 23.61C5.0418 23.5233 5.06513 23.46 5.1118 23.42C5.1518 23.3733 5.21846 23.33 5.3118 23.29C6.0518 22.9767 6.80846 22.7233 7.5818 22.53C7.87513 22.4567 8.20846 22.42 8.5818 22.42ZM10.9012 23.61C10.9012 23.5633 10.9078 23.5267 10.9212 23.5C10.9278 23.4733 10.9478 23.44 10.9812 23.4C11.0145 23.36 11.0512 23.3267 11.0912 23.3C11.1245 23.2667 11.1878 23.2133 11.2812 23.14C11.3745 23.06 11.4645 22.98 11.5512 22.9C12.0578 22.44 12.4845 22.21 12.8312 22.21C12.9912 22.21 13.1245 22.2567 13.2312 22.35C13.3445 22.4367 13.4012 22.55 13.4012 22.69C13.4012 22.7967 13.3778 22.9033 13.3312 23.01C13.2845 23.11 13.2112 23.23 13.1112 23.37C13.0112 23.51 12.9412 23.6133 12.9012 23.68C13.0878 23.62 13.2678 23.5567 13.4412 23.49C13.6145 23.4167 13.7345 23.37 13.8012 23.35C13.8745 23.3233 13.9378 23.31 13.9912 23.31C14.0645 23.31 14.1312 23.34 14.1912 23.4C14.2512 23.46 14.2812 23.53 14.2812 23.61C14.2812 23.77 14.1445 23.89 13.8712 23.97C13.7512 24.0033 13.5812 24.0633 13.3612 24.15C13.1412 24.2367 12.9978 24.29 12.9312 24.31C12.8845 24.3233 12.8345 24.34 12.7812 24.36C12.7278 24.38 12.6812 24.3967 12.6412 24.41C12.6078 24.4167 12.5678 24.42 12.5212 24.42C12.4078 24.42 12.3112 24.3767 12.2312 24.29C12.1512 24.2033 12.1112 24.1033 12.1112 23.99C12.1112 23.91 12.1312 23.82 12.1712 23.72C12.2178 23.6133 12.2645 23.5233 12.3112 23.45C12.3645 23.37 12.4378 23.2633 12.5312 23.13C12.6245 22.9967 12.6912 22.8967 12.7312 22.83C12.5978 22.85 12.3812 22.9867 12.0812 23.24C11.9545 23.3467 11.8312 23.4533 11.7112 23.56C11.5978 23.6667 11.5178 23.74 11.4712 23.78C11.4312 23.8133 11.3878 23.8433 11.3412 23.87C11.2945 23.8967 11.2478 23.91 11.2012 23.91C11.1145 23.91 11.0445 23.8833 10.9912 23.83C10.9312 23.77 10.9012 23.6967 10.9012 23.61ZM13.6844 23.61C13.6844 23.4767 13.871 23.2867 14.2444 23.04C14.4844 22.88 14.7177 22.8 14.9444 22.8C15.091 22.8 15.2077 22.8367 15.2944 22.91C15.381 22.9833 15.4244 23.08 15.4244 23.2C15.4244 23.3133 15.3944 23.4467 15.3344 23.6C15.2744 23.7533 15.191 23.9333 15.0844 24.14C14.9844 24.3467 14.9077 24.5267 14.8544 24.68C15.0477 24.6467 15.2577 24.57 15.4844 24.45C15.711 24.33 15.8777 24.2333 15.9844 24.16C16.091 24.08 16.2644 23.95 16.5044 23.77C16.7977 23.55 17.201 23.1933 17.7144 22.7C17.7277 22.6867 17.751 22.6633 17.7844 22.63C17.8177 22.59 17.841 22.5633 17.8544 22.55C17.8744 22.5367 17.8977 22.52 17.9244 22.5C17.951 22.48 17.9777 22.4667 18.0044 22.46C18.0377 22.4467 18.071 22.44 18.1044 22.44C18.191 22.44 18.2644 22.4733 18.3244 22.54C18.391 22.6067 18.4244 22.6867 18.4244 22.78C18.4244 22.86 18.3977 22.97 18.3444 23.11C18.2977 23.25 18.2277 23.43 18.1344 23.65C18.041 23.87 17.971 24.0367 17.9244 24.15C18.0777 24.1233 18.301 24.0067 18.5944 23.8C18.7077 23.72 18.8044 23.6433 18.8844 23.57C18.971 23.4967 19.031 23.4467 19.0644 23.42C19.0977 23.3867 19.131 23.36 19.1644 23.34C19.2044 23.32 19.2477 23.31 19.2944 23.31C19.381 23.31 19.4544 23.34 19.5144 23.4C19.5744 23.4533 19.6044 23.5233 19.6044 23.61C19.6044 23.65 19.5944 23.69 19.5744 23.73C19.561 23.7633 19.5344 23.8 19.4944 23.84C19.4544 23.88 19.4144 23.9167 19.3744 23.95C19.341 23.9767 19.2877 24.02 19.2144 24.08C19.141 24.1333 19.081 24.18 19.0344 24.22C18.6077 24.58 18.201 24.76 17.8144 24.76C17.461 24.76 17.2844 24.6133 17.2844 24.32C17.2844 24.26 17.291 24.2067 17.3044 24.16C17.3177 24.1067 17.3344 24.0467 17.3544 23.98C17.3744 23.9133 17.391 23.8567 17.4044 23.81C17.331 23.87 17.1877 23.99 16.9744 24.17C16.761 24.3433 16.5744 24.4833 16.4144 24.59C16.161 24.7567 15.9677 24.88 15.8344 24.96C15.7077 25.0333 15.5444 25.1067 15.3444 25.18C15.1444 25.2533 14.951 25.29 14.7644 25.29C14.5777 25.29 14.4377 25.2467 14.3444 25.16C14.251 25.08 14.2044 24.9733 14.2044 24.84C14.2044 24.7267 14.2344 24.5867 14.2944 24.42C14.361 24.2533 14.4444 24.0667 14.5444 23.86C14.651 23.6467 14.7144 23.5133 14.7344 23.46C14.681 23.48 14.5877 23.5333 14.4544 23.62C14.4077 23.6533 14.3577 23.69 14.3044 23.73C14.2577 23.77 14.221 23.8033 14.1944 23.83C14.1744 23.85 14.1444 23.87 14.1044 23.89C14.071 23.9033 14.031 23.91 13.9844 23.91C13.9044 23.91 13.8344 23.88 13.7744 23.82C13.7144 23.76 13.6844 23.69 13.6844 23.61ZM19.0262 23.61C19.0262 23.5033 19.0762 23.4233 19.1762 23.37C19.2695 23.31 19.5162 23.2067 19.9162 23.06C20.1428 22.98 20.3295 22.9133 20.4762 22.86C21.5028 22.4733 22.0395 22.28 22.0862 22.28C22.1795 22.28 22.2562 22.3167 22.3162 22.39C22.3762 22.4567 22.4062 22.54 22.4062 22.64C22.4062 22.7533 22.3895 22.87 22.3562 22.99C22.3295 23.1033 22.2895 23.24 22.2362 23.4C22.1895 23.56 22.1528 23.69 22.1262 23.79C22.2528 23.7367 22.4028 23.6667 22.5762 23.58C22.7562 23.4867 22.8962 23.42 22.9962 23.38C23.1028 23.3333 23.1862 23.31 23.2462 23.31C23.3195 23.31 23.3828 23.34 23.4362 23.4C23.4895 23.4533 23.5162 23.5233 23.5162 23.61C23.5162 23.6567 23.5095 23.6967 23.4962 23.73C23.4895 23.7567 23.4762 23.7833 23.4562 23.81C23.4362 23.83 23.3962 23.8533 23.3362 23.88C23.2828 23.9067 23.2262 23.9333 23.1662 23.96C23.1128 23.9867 23.0262 24.03 22.9062 24.09C22.7862 24.1433 22.6662 24.2 22.5462 24.26C22.3995 24.3333 22.2595 24.4067 22.1262 24.48C21.9928 24.5533 21.9028 24.6033 21.8562 24.63C21.8095 24.65 21.7628 24.67 21.7162 24.69C21.6762 24.7033 21.6362 24.71 21.5962 24.71C21.5162 24.71 21.4462 24.6833 21.3862 24.63C21.3328 24.57 21.3062 24.5 21.3062 24.42C21.3062 24.3867 21.3262 24.2967 21.3662 24.15C21.4128 24.0033 21.4728 23.8167 21.5462 23.59C21.6262 23.3567 21.6862 23.1733 21.7262 23.04C21.5928 23.0933 21.4162 23.16 21.1962 23.24C20.9762 23.32 20.7995 23.3833 20.6662 23.43C19.7928 23.75 19.3462 23.91 19.3262 23.91C19.2395 23.91 19.1695 23.8833 19.1162 23.83C19.0562 23.77 19.0262 23.6967 19.0262 23.61ZM27.8055 23.61C27.8055 23.4767 27.9921 23.2867 28.3655 23.04C28.6055 22.88 28.8388 22.8 29.0655 22.8C29.2121 22.8 29.3288 22.8367 29.4155 22.91C29.5021 22.9833 29.5455 23.08 29.5455 23.2C29.5455 23.3133 29.5155 23.4467 29.4555 23.6C29.3955 23.7533 29.3121 23.9333 29.2055 24.14C29.1055 24.3467 29.0288 24.5267 28.9755 24.68C29.1688 24.6467 29.3788 24.57 29.6055 24.45C29.8321 24.33 29.9988 24.2333 30.1055 24.16C30.2121 24.08 30.3855 23.95 30.6255 23.77C30.9188 23.55 31.3221 23.1933 31.8355 22.7C31.8488 22.6867 31.8721 22.6633 31.9055 22.63C31.9388 22.59 31.9621 22.5633 31.9755 22.55C31.9955 22.5367 32.0188 22.52 32.0455 22.5C32.0721 22.48 32.0988 22.4667 32.1255 22.46C32.1588 22.4467 32.1921 22.44 32.2255 22.44C32.3121 22.44 32.3855 22.4733 32.4455 22.54C32.5121 22.6067 32.5455 22.6867 32.5455 22.78C32.5455 22.86 32.5188 22.97 32.4655 23.11C32.4188 23.25 32.3488 23.43 32.2555 23.65C32.1621 23.87 32.0921 24.0367 32.0455 24.15C32.1988 24.1233 32.4221 24.0067 32.7155 23.8C32.8288 23.72 32.9255 23.6433 33.0055 23.57C33.0921 23.4967 33.1521 23.4467 33.1855 23.42C33.2188 23.3867 33.2521 23.36 33.2855 23.34C33.3255 23.32 33.3688 23.31 33.4155 23.31C33.5021 23.31 33.5755 23.34 33.6355 23.4C33.6955 23.4533 33.7255 23.5233 33.7255 23.61C33.7255 23.65 33.7155 23.69 33.6955 23.73C33.6821 23.7633 33.6555 23.8 33.6155 23.84C33.5755 23.88 33.5355 23.9167 33.4955 23.95C33.4621 23.9767 33.4088 24.02 33.3355 24.08C33.2621 24.1333 33.2021 24.18 33.1555 24.22C32.7288 24.58 32.3221 24.76 31.9355 24.76C31.5821 24.76 31.4055 24.6133 31.4055 24.32C31.4055 24.26 31.4121 24.2067 31.4255 24.16C31.4388 24.1067 31.4555 24.0467 31.4755 23.98C31.4955 23.9133 31.5121 23.8567 31.5255 23.81C31.4521 23.87 31.3088 23.99 31.0955 24.17C30.8821 24.3433 30.6955 24.4833 30.5355 24.59C30.2821 24.7567 30.0888 24.88 29.9555 24.96C29.8288 25.0333 29.6655 25.1067 29.4655 25.18C29.2655 25.2533 29.0721 25.29 28.8855 25.29C28.6988 25.29 28.5588 25.2467 28.4655 25.16C28.3721 25.08 28.3255 24.9733 28.3255 24.84C28.3255 24.7267 28.3555 24.5867 28.4155 24.42C28.4821 24.2533 28.5655 24.0667 28.6655 23.86C28.7721 23.6467 28.8355 23.5133 28.8555 23.46C28.8021 23.48 28.7088 23.5333 28.5755 23.62C28.5288 23.6533 28.4788 23.69 28.4255 23.73C28.3788 23.77 28.3421 23.8033 28.3155 23.83C28.2955 23.85 28.2655 23.87 28.2255 23.89C28.1921 23.9033 28.1521 23.91 28.1055 23.91C28.0255 23.91 27.9555 23.88 27.8955 23.82C27.8355 23.76 27.8055 23.69 27.8055 23.61ZM36.6873 22.42C37.0139 22.42 37.2706 22.4567 37.4573 22.53C37.6439 22.6033 37.7373 22.7467 37.7373 22.96C37.7373 23.0733 37.7139 23.18 37.6673 23.28C37.6273 23.3733 37.5673 23.4867 37.4873 23.62C37.4073 23.7467 37.3473 23.8533 37.3073 23.94C37.5473 23.88 37.8273 23.7967 38.1473 23.69C38.4673 23.5833 38.7306 23.4933 38.9373 23.42C39.1506 23.3467 39.2739 23.31 39.3073 23.31C39.4006 23.31 39.4739 23.34 39.5273 23.4C39.5806 23.46 39.6073 23.5333 39.6073 23.62C39.6073 23.7533 39.5073 23.8567 39.3073 23.93C38.0139 24.39 37.2273 24.62 36.9473 24.62C36.8339 24.62 36.7373 24.58 36.6573 24.5C36.5773 24.42 36.5373 24.3267 36.5373 24.22C36.5373 24.1267 36.5673 24.02 36.6273 23.9C36.6873 23.78 36.7673 23.6367 36.8673 23.47C36.9739 23.3033 37.0539 23.1667 37.1073 23.06C36.8939 23.0333 36.7539 23.02 36.6873 23.02C36.3606 23.02 35.9039 23.0933 35.3173 23.24C35.1839 23.2667 35.0639 23.3 34.9573 23.34C34.8506 23.3733 34.7239 23.42 34.5773 23.48C34.4373 23.5333 34.3206 23.5767 34.2273 23.61C34.1739 23.63 34.0873 23.6667 33.9673 23.72C33.8473 23.7733 33.7406 23.82 33.6473 23.86C33.5539 23.8933 33.4873 23.91 33.4473 23.91C33.3673 23.91 33.2973 23.88 33.2373 23.82C33.1773 23.76 33.1473 23.69 33.1473 23.61C33.1473 23.5233 33.1706 23.46 33.2173 23.42C33.2573 23.3733 33.3239 23.33 33.4173 23.29C34.1573 22.9767 34.9139 22.7233 35.6873 22.53C35.9806 22.4567 36.3139 22.42 36.6873 22.42ZM47.4099 22.42C47.7366 22.42 47.9933 22.4567 48.1799 22.53C48.3666 22.6033 48.4599 22.7467 48.4599 22.96C48.4599 23.0733 48.4366 23.18 48.3899 23.28C48.3499 23.3733 48.2899 23.4867 48.2099 23.62C48.1299 23.7467 48.0699 23.8533 48.0299 23.94C48.2699 23.88 48.5499 23.7967 48.8699 23.69C49.1899 23.5833 49.4533 23.4933 49.6599 23.42C49.8733 23.3467 49.9966 23.31 50.0299 23.31C50.1233 23.31 50.1966 23.34 50.2499 23.4C50.3033 23.46 50.3299 23.5333 50.3299 23.62C50.3299 23.7533 50.2299 23.8567 50.0299 23.93C48.7366 24.39 47.9499 24.62 47.6699 24.62C47.5566 24.62 47.4599 24.58 47.3799 24.5C47.2999 24.42 47.2599 24.3267 47.2599 24.22C47.2599 24.1267 47.2899 24.02 47.3499 23.9C47.4099 23.78 47.4899 23.6367 47.5899 23.47C47.6966 23.3033 47.7766 23.1667 47.8299 23.06C47.6166 23.0333 47.4766 23.02 47.4099 23.02C47.0833 23.02 46.6266 23.0933 46.0399 23.24C45.9066 23.2667 45.7866 23.3 45.6799 23.34C45.5733 23.3733 45.4466 23.42 45.2999 23.48C45.1599 23.5333 45.0433 23.5767 44.9499 23.61C44.8966 23.63 44.8099 23.6667 44.6899 23.72C44.5699 23.7733 44.4633 23.82 44.3699 23.86C44.2766 23.8933 44.2099 23.91 44.1699 23.91C44.0899 23.91 44.0199 23.88 43.9599 23.82C43.8999 23.76 43.8699 23.69 43.8699 23.61C43.8699 23.5233 43.8933 23.46 43.9399 23.42C43.9799 23.3733 44.0466 23.33 44.1399 23.29C44.8799 22.9767 45.6366 22.7233 46.4099 22.53C46.7033 22.4567 47.0366 22.42 47.4099 22.42ZM49.7293 23.61C49.7293 23.5633 49.736 23.5267 49.7493 23.5C49.756 23.4733 49.776 23.44 49.8093 23.4C49.8426 23.36 49.8793 23.3267 49.9193 23.3C49.9526 23.2667 50.016 23.2133 50.1093 23.14C50.2026 23.06 50.2926 22.98 50.3793 22.9C50.886 22.44 51.3126 22.21 51.6593 22.21C51.8193 22.21 51.9526 22.2567 52.0593 22.35C52.1726 22.4367 52.2293 22.55 52.2293 22.69C52.2293 22.7967 52.206 22.9033 52.1593 23.01C52.1126 23.11 52.0393 23.23 51.9393 23.37C51.8393 23.51 51.7693 23.6133 51.7293 23.68C51.916 23.62 52.096 23.5567 52.2693 23.49C52.4426 23.4167 52.5626 23.37 52.6293 23.35C52.7026 23.3233 52.766 23.31 52.8193 23.31C52.8926 23.31 52.9593 23.34 53.0193 23.4C53.0793 23.46 53.1093 23.53 53.1093 23.61C53.1093 23.77 52.9726 23.89 52.6993 23.97C52.5793 24.0033 52.4093 24.0633 52.1893 24.15C51.9693 24.2367 51.826 24.29 51.7593 24.31C51.7126 24.3233 51.6626 24.34 51.6093 24.36C51.556 24.38 51.5093 24.3967 51.4693 24.41C51.436 24.4167 51.396 24.42 51.3493 24.42C51.236 24.42 51.1393 24.3767 51.0593 24.29C50.9793 24.2033 50.9393 24.1033 50.9393 23.99C50.9393 23.91 50.9593 23.82 50.9993 23.72C51.046 23.6133 51.0926 23.5233 51.1393 23.45C51.1926 23.37 51.266 23.2633 51.3593 23.13C51.4526 22.9967 51.5193 22.8967 51.5593 22.83C51.426 22.85 51.2093 22.9867 50.9093 23.24C50.7826 23.3467 50.6593 23.4533 50.5393 23.56C50.426 23.6667 50.346 23.74 50.2993 23.78C50.2593 23.8133 50.216 23.8433 50.1693 23.87C50.1226 23.8967 50.076 23.91 50.0293 23.91C49.9426 23.91 49.8726 23.8833 49.8193 23.83C49.7593 23.77 49.7293 23.6967 49.7293 23.61ZM56.0525 22.42C56.3792 22.42 56.6358 22.4567 56.8225 22.53C57.0092 22.6033 57.1025 22.7467 57.1025 22.96C57.1025 23.0733 57.0792 23.18 57.0325 23.28C56.9925 23.3733 56.9325 23.4867 56.8525 23.62C56.7725 23.7467 56.7125 23.8533 56.6725 23.94C56.9125 23.88 57.1925 23.7967 57.5125 23.69C57.8325 23.5833 58.0958 23.4933 58.3025 23.42C58.5158 23.3467 58.6392 23.31 58.6725 23.31C58.7658 23.31 58.8392 23.34 58.8925 23.4C58.9458 23.46 58.9725 23.5333 58.9725 23.62C58.9725 23.7533 58.8725 23.8567 58.6725 23.93C57.3792 24.39 56.5925 24.62 56.3125 24.62C56.1992 24.62 56.1025 24.58 56.0225 24.5C55.9425 24.42 55.9025 24.3267 55.9025 24.22C55.9025 24.1267 55.9325 24.02 55.9925 23.9C56.0525 23.78 56.1325 23.6367 56.2325 23.47C56.3392 23.3033 56.4192 23.1667 56.4725 23.06C56.2592 23.0333 56.1192 23.02 56.0525 23.02C55.7258 23.02 55.2692 23.0933 54.6825 23.24C54.5492 23.2667 54.4292 23.3 54.3225 23.34C54.2158 23.3733 54.0892 23.42 53.9425 23.48C53.8025 23.5333 53.6858 23.5767 53.5925 23.61C53.5392 23.63 53.4525 23.6667 53.3325 23.72C53.2125 23.7733 53.1058 23.82 53.0125 23.86C52.9192 23.8933 52.8525 23.91 52.8125 23.91C52.7325 23.91 52.6625 23.88 52.6025 23.82C52.5425 23.76 52.5125 23.69 52.5125 23.61C52.5125 23.5233 52.5358 23.46 52.5825 23.42C52.6225 23.3733 52.6892 23.33 52.7825 23.29C53.5225 22.9767 54.2792 22.7233 55.0525 22.53C55.3458 22.4567 55.6792 22.42 56.0525 22.42ZM58.3719 23.61C58.3719 23.4633 58.4452 23.3667 58.5919 23.32C58.8052 23.2467 59.0585 23.1533 59.3519 23.04C59.6519 22.92 59.8785 22.8333 60.0319 22.78C60.2319 22.7133 60.3352 22.68 60.3419 22.68C60.4219 22.68 60.4919 22.71 60.5519 22.77C60.6119 22.8233 60.6419 22.89 60.6419 22.97C60.6419 23.01 60.6119 23.12 60.5519 23.3C60.4985 23.4733 60.4285 23.6967 60.3419 23.97C60.2552 24.2367 60.1852 24.47 60.1319 24.67C60.3919 24.5767 60.6185 24.4767 60.8119 24.37C61.2452 24.13 61.6852 23.85 62.1319 23.53C62.3385 23.3833 62.4852 23.31 62.5719 23.31C62.6519 23.31 62.7185 23.34 62.7719 23.4C62.8252 23.46 62.8519 23.53 62.8519 23.61C62.8519 23.6367 62.8485 23.6633 62.8419 23.69C62.8419 23.71 62.8352 23.73 62.8219 23.75C62.8085 23.77 62.7985 23.7867 62.7919 23.8C62.7852 23.8067 62.7685 23.82 62.7419 23.84C62.7219 23.86 62.7052 23.8733 62.6919 23.88C62.6852 23.8867 62.6652 23.9 62.6319 23.92C62.5985 23.94 62.5785 23.9533 62.5719 23.96C62.5052 24 62.4052 24.0667 62.2719 24.16C62.1385 24.2467 62.0452 24.31 61.9919 24.35C61.9385 24.3833 61.8585 24.4333 61.7519 24.5C61.6452 24.5667 61.5585 24.62 61.4919 24.66C61.4252 24.7 61.3419 24.75 61.2419 24.81C61.1485 24.8633 61.0519 24.9167 60.9519 24.97C60.8585 25.0167 60.7585 25.0667 60.6519 25.12C60.4119 25.24 60.1752 25.3 59.9419 25.3C59.6352 25.3 59.4819 25.17 59.4819 24.91C59.4819 24.8167 59.4952 24.7067 59.5219 24.58C59.5552 24.4467 59.6119 24.25 59.6919 23.99C59.7785 23.73 59.8319 23.5633 59.8519 23.49C59.7385 23.53 59.5819 23.59 59.3819 23.67C59.1885 23.7433 59.0285 23.8033 58.9019 23.85C58.7819 23.89 58.7052 23.91 58.6719 23.91C58.5852 23.91 58.5152 23.8833 58.4619 23.83C58.4019 23.77 58.3719 23.6967 58.3719 23.61ZM65.8084 22.42C66.135 22.42 66.3917 22.4567 66.5784 22.53C66.765 22.6033 66.8584 22.7467 66.8584 22.96C66.8584 23.0733 66.835 23.18 66.7884 23.28C66.7484 23.3733 66.6884 23.4867 66.6084 23.62C66.5284 23.7467 66.4684 23.8533 66.4284 23.94C66.6684 23.88 66.9484 23.7967 67.2684 23.69C67.5884 23.5833 67.8517 23.4933 68.0584 23.42C68.2717 23.3467 68.395 23.31 68.4284 23.31C68.5217 23.31 68.595 23.34 68.6484 23.4C68.7017 23.46 68.7284 23.5333 68.7284 23.62C68.7284 23.7533 68.6284 23.8567 68.4284 23.93C67.135 24.39 66.3484 24.62 66.0684 24.62C65.955 24.62 65.8584 24.58 65.7784 24.5C65.6984 24.42 65.6584 24.3267 65.6584 24.22C65.6584 24.1267 65.6884 24.02 65.7484 23.9C65.8084 23.78 65.8884 23.6367 65.9884 23.47C66.095 23.3033 66.175 23.1667 66.2284 23.06C66.015 23.0333 65.875 23.02 65.8084 23.02C65.4817 23.02 65.025 23.0933 64.4384 23.24C64.305 23.2667 64.185 23.3 64.0784 23.34C63.9717 23.3733 63.845 23.42 63.6984 23.48C63.5584 23.5333 63.4417 23.5767 63.3484 23.61C63.295 23.63 63.2084 23.6667 63.0884 23.72C62.9684 23.7733 62.8617 23.82 62.7684 23.86C62.675 23.8933 62.6084 23.91 62.5684 23.91C62.4884 23.91 62.4184 23.88 62.3584 23.82C62.2984 23.76 62.2684 23.69 62.2684 23.61C62.2684 23.5233 62.2917 23.46 62.3384 23.42C62.3784 23.3733 62.445 23.33 62.5384 23.29C63.2784 22.9767 64.035 22.7233 64.8084 22.53C65.1017 22.4567 65.435 22.42 65.8084 22.42ZM-0.3 32.61C-0.3 32.4767 -0.113333 32.2867 0.26 32.04C0.5 31.88 0.733333 31.8 0.96 31.8C1.10667 31.8 1.22333 31.8367 1.31 31.91C1.39667 31.9833 1.44 32.08 1.44 32.2C1.44 32.3133 1.41 32.4467 1.35 32.6C1.29 32.7533 1.20667 32.9333 1.1 33.14C1 33.3467 0.923333 33.5267 0.87 33.68C1.06333 33.6467 1.27333 33.57 1.5 33.45C1.72667 33.33 1.89333 33.2333 2 33.16C2.10667 33.08 2.28 32.95 2.52 32.77C2.81333 32.55 3.21667 32.1933 3.73 31.7C3.74333 31.6867 3.76667 31.6633 3.8 31.63C3.83333 31.59 3.85667 31.5633 3.87 31.55C3.89 31.5367 3.91333 31.52 3.94 31.5C3.96667 31.48 3.99333 31.4667 4.02 31.46C4.05333 31.4467 4.08667 31.44 4.12 31.44C4.20667 31.44 4.28 31.4733 4.34 31.54C4.40667 31.6067 4.44 31.6867 4.44 31.78C4.44 31.86 4.41333 31.97 4.36 32.11C4.31333 32.25 4.24333 32.43 4.15 32.65C4.05667 32.87 3.98667 33.0367 3.94 33.15C4.09333 33.1233 4.31667 33.0067 4.61 32.8C4.72333 32.72 4.82 32.6433 4.9 32.57C4.98667 32.4967 5.04667 32.4467 5.08 32.42C5.11333 32.3867 5.14667 32.36 5.18 32.34C5.22 32.32 5.26333 32.31 5.31 32.31C5.39667 32.31 5.47 32.34 5.53 32.4C5.59 32.4533 5.62 32.5233 5.62 32.61C5.62 32.65 5.61 32.69 5.59 32.73C5.57667 32.7633 5.55 32.8 5.51 32.84C5.47 32.88 5.43 32.9167 5.39 32.95C5.35667 32.9767 5.30333 33.02 5.23 33.08C5.15667 33.1333 5.09667 33.18 5.05 33.22C4.62333 33.58 4.21667 33.76 3.83 33.76C3.47667 33.76 3.3 33.6133 3.3 33.32C3.3 33.26 3.30667 33.2067 3.32 33.16C3.33333 33.1067 3.35 33.0467 3.37 32.98C3.39 32.9133 3.40667 32.8567 3.42 32.81C3.34667 32.87 3.20333 32.99 2.99 33.17C2.77667 33.3433 2.59 33.4833 2.43 33.59C2.17667 33.7567 1.98333 33.88 1.85 33.96C1.72333 34.0333 1.56 34.1067 1.36 34.18C1.16 34.2533 0.966667 34.29 0.78 34.29C0.593333 34.29 0.453333 34.2467 0.36 34.16C0.266667 34.08 0.22 33.9733 0.22 33.84C0.22 33.7267 0.25 33.5867 0.31 33.42C0.376667 33.2533 0.46 33.0667 0.56 32.86C0.666667 32.6467 0.73 32.5133 0.75 32.46C0.696667 32.48 0.603333 32.5333 0.47 32.62C0.423333 32.6533 0.373333 32.69 0.32 32.73C0.273333 32.77 0.236667 32.8033 0.21 32.83C0.19 32.85 0.16 32.87 0.12 32.89C0.0866667 32.9033 0.0466667 32.91 0 32.91C-0.08 32.91 -0.15 32.88 -0.21 32.82C-0.27 32.76 -0.3 32.69 -0.3 32.61ZM8.5818 31.42C8.90846 31.42 9.16513 31.4567 9.3518 31.53C9.53846 31.6033 9.6318 31.7467 9.6318 31.96C9.6318 32.0733 9.60846 32.18 9.5618 32.28C9.5218 32.3733 9.4618 32.4867 9.3818 32.62C9.3018 32.7467 9.2418 32.8533 9.2018 32.94C9.4418 32.88 9.7218 32.7967 10.0418 32.69C10.3618 32.5833 10.6251 32.4933 10.8318 32.42C11.0451 32.3467 11.1685 32.31 11.2018 32.31C11.2951 32.31 11.3685 32.34 11.4218 32.4C11.4751 32.46 11.5018 32.5333 11.5018 32.62C11.5018 32.7533 11.4018 32.8567 11.2018 32.93C9.90846 33.39 9.1218 33.62 8.8418 33.62C8.72846 33.62 8.6318 33.58 8.5518 33.5C8.4718 33.42 8.4318 33.3267 8.4318 33.22C8.4318 33.1267 8.4618 33.02 8.5218 32.9C8.5818 32.78 8.6618 32.6367 8.7618 32.47C8.86846 32.3033 8.94846 32.1667 9.0018 32.06C8.78846 32.0333 8.64846 32.02 8.5818 32.02C8.25513 32.02 7.79846 32.0933 7.2118 32.24C7.07846 32.2667 6.95846 32.3 6.8518 32.34C6.74513 32.3733 6.61846 32.42 6.4718 32.48C6.3318 32.5333 6.21513 32.5767 6.1218 32.61C6.06846 32.63 5.9818 32.6667 5.8618 32.72C5.7418 32.7733 5.63513 32.82 5.5418 32.86C5.44846 32.8933 5.3818 32.91 5.3418 32.91C5.2618 32.91 5.1918 32.88 5.1318 32.82C5.0718 32.76 5.0418 32.69 5.0418 32.61C5.0418 32.5233 5.06513 32.46 5.1118 32.42C5.1518 32.3733 5.21846 32.33 5.3118 32.29C6.0518 31.9767 6.80846 31.7233 7.5818 31.53C7.87513 31.4567 8.20846 31.42 8.5818 31.42ZM15.7645 32.61C15.7645 32.5633 15.7711 32.5267 15.7845 32.5C15.7911 32.4733 15.8111 32.44 15.8445 32.4C15.8778 32.36 15.9145 32.3267 15.9545 32.3C15.9878 32.2667 16.0511 32.2133 16.1445 32.14C16.2378 32.06 16.3278 31.98 16.4145 31.9C16.9211 31.44 17.3478 31.21 17.6945 31.21C17.8545 31.21 17.9878 31.2567 18.0945 31.35C18.2078 31.4367 18.2645 31.55 18.2645 31.69C18.2645 31.7967 18.2411 31.9033 18.1945 32.01C18.1478 32.11 18.0745 32.23 17.9745 32.37C17.8745 32.51 17.8045 32.6133 17.7645 32.68C17.9511 32.62 18.1311 32.5567 18.3045 32.49C18.4778 32.4167 18.5978 32.37 18.6645 32.35C18.7378 32.3233 18.8011 32.31 18.8545 32.31C18.9278 32.31 18.9945 32.34 19.0545 32.4C19.1145 32.46 19.1445 32.53 19.1445 32.61C19.1445 32.77 19.0078 32.89 18.7345 32.97C18.6145 33.0033 18.4445 33.0633 18.2245 33.15C18.0045 33.2367 17.8611 33.29 17.7945 33.31C17.7478 33.3233 17.6978 33.34 17.6445 33.36C17.5911 33.38 17.5445 33.3967 17.5045 33.41C17.4711 33.4167 17.4311 33.42 17.3845 33.42C17.2711 33.42 17.1745 33.3767 17.0945 33.29C17.0145 33.2033 16.9745 33.1033 16.9745 32.99C16.9745 32.91 16.9945 32.82 17.0345 32.72C17.0811 32.6133 17.1278 32.5233 17.1745 32.45C17.2278 32.37 17.3011 32.2633 17.3945 32.13C17.4878 31.9967 17.5545 31.8967 17.5945 31.83C17.4611 31.85 17.2445 31.9867 16.9445 32.24C16.8178 32.3467 16.6945 32.4533 16.5745 32.56C16.4611 32.6667 16.3811 32.74 16.3345 32.78C16.2945 32.8133 16.2511 32.8433 16.2045 32.87C16.1578 32.8967 16.1111 32.91 16.0645 32.91C15.9778 32.91 15.9078 32.8833 15.8545 32.83C15.7945 32.77 15.7645 32.6967 15.7645 32.61ZM18.5477 32.61C18.5477 32.4633 18.621 32.3667 18.7677 32.32C18.981 32.2467 19.2343 32.1533 19.5277 32.04C19.8277 31.92 20.0543 31.8333 20.2077 31.78C20.4077 31.7133 20.511 31.68 20.5177 31.68C20.5977 31.68 20.6677 31.71 20.7277 31.77C20.7877 31.8233 20.8177 31.89 20.8177 31.97C20.8177 32.01 20.7877 32.12 20.7277 32.3C20.6743 32.4733 20.6043 32.6967 20.5177 32.97C20.431 33.2367 20.361 33.47 20.3077 33.67C20.5677 33.5767 20.7943 33.4767 20.9877 33.37C21.421 33.13 21.861 32.85 22.3077 32.53C22.5143 32.3833 22.661 32.31 22.7477 32.31C22.8277 32.31 22.8943 32.34 22.9477 32.4C23.001 32.46 23.0277 32.53 23.0277 32.61C23.0277 32.6367 23.0243 32.6633 23.0177 32.69C23.0177 32.71 23.011 32.73 22.9977 32.75C22.9843 32.77 22.9743 32.7867 22.9677 32.8C22.961 32.8067 22.9443 32.82 22.9177 32.84C22.8977 32.86 22.881 32.8733 22.8677 32.88C22.861 32.8867 22.841 32.9 22.8077 32.92C22.7743 32.94 22.7543 32.9533 22.7477 32.96C22.681 33 22.581 33.0667 22.4477 33.16C22.3143 33.2467 22.221 33.31 22.1677 33.35C22.1143 33.3833 22.0343 33.4333 21.9277 33.5C21.821 33.5667 21.7343 33.62 21.6677 33.66C21.601 33.7 21.5177 33.75 21.4177 33.81C21.3243 33.8633 21.2277 33.9167 21.1277 33.97C21.0343 34.0167 20.9343 34.0667 20.8277 34.12C20.5877 34.24 20.351 34.3 20.1177 34.3C19.811 34.3 19.6577 34.17 19.6577 33.91C19.6577 33.8167 19.671 33.7067 19.6977 33.58C19.731 33.4467 19.7877 33.25 19.8677 32.99C19.9543 32.73 20.0077 32.5633 20.0277 32.49C19.9143 32.53 19.7577 32.59 19.5577 32.67C19.3643 32.7433 19.2043 32.8033 19.0777 32.85C18.9577 32.89 18.881 32.91 18.8477 32.91C18.761 32.91 18.691 32.8833 18.6377 32.83C18.5777 32.77 18.5477 32.6967 18.5477 32.61ZM25.9841 31.42C26.3108 31.42 26.5675 31.4567 26.7541 31.53C26.9408 31.6033 27.0341 31.7467 27.0341 31.96C27.0341 32.0733 27.0108 32.18 26.9641 32.28C26.9241 32.3733 26.8641 32.4867 26.7841 32.62C26.7041 32.7467 26.6441 32.8533 26.6041 32.94C26.8441 32.88 27.1241 32.7967 27.4441 32.69C27.7641 32.5833 28.0275 32.4933 28.2341 32.42C28.4475 32.3467 28.5708 32.31 28.6041 32.31C28.6975 32.31 28.7708 32.34 28.8241 32.4C28.8775 32.46 28.9041 32.5333 28.9041 32.62C28.9041 32.7533 28.8041 32.8567 28.6041 32.93C27.3108 33.39 26.5241 33.62 26.2441 33.62C26.1308 33.62 26.0341 33.58 25.9541 33.5C25.8741 33.42 25.8341 33.3267 25.8341 33.22C25.8341 33.1267 25.8641 33.02 25.9241 32.9C25.9841 32.78 26.0641 32.6367 26.1641 32.47C26.2708 32.3033 26.3508 32.1667 26.4041 32.06C26.1908 32.0333 26.0508 32.02 25.9841 32.02C25.6575 32.02 25.2008 32.0933 24.6141 32.24C24.4808 32.2667 24.3608 32.3 24.2541 32.34C24.1475 32.3733 24.0208 32.42 23.8741 32.48C23.7341 32.5333 23.6175 32.5767 23.5241 32.61C23.4708 32.63 23.3841 32.6667 23.2641 32.72C23.1441 32.7733 23.0375 32.82 22.9441 32.86C22.8508 32.8933 22.7841 32.91 22.7441 32.91C22.6641 32.91 22.5941 32.88 22.5341 32.82C22.4741 32.76 22.4441 32.69 22.4441 32.61C22.4441 32.5233 22.4675 32.46 22.5141 32.42C22.5541 32.3733 22.6208 32.33 22.7141 32.29C23.4541 31.9767 24.2108 31.7233 24.9841 31.53C25.2775 31.4567 25.6108 31.42 25.9841 31.42ZM31.8435 31.42C32.1702 31.42 32.4268 31.4567 32.6135 31.53C32.8002 31.6033 32.8935 31.7467 32.8935 31.96C32.8935 32.0733 32.8702 32.18 32.8235 32.28C32.7835 32.3733 32.7235 32.4867 32.6435 32.62C32.5635 32.7467 32.5035 32.8533 32.4635 32.94C32.7035 32.88 32.9835 32.7967 33.3035 32.69C33.6235 32.5833 33.8868 32.4933 34.0935 32.42C34.3068 32.3467 34.4302 32.31 34.4635 32.31C34.5568 32.31 34.6302 32.34 34.6835 32.4C34.7368 32.46 34.7635 32.5333 34.7635 32.62C34.7635 32.7533 34.6635 32.8567 34.4635 32.93C33.1702 33.39 32.3835 33.62 32.1035 33.62C31.9902 33.62 31.8935 33.58 31.8135 33.5C31.7335 33.42 31.6935 33.3267 31.6935 33.22C31.6935 33.1267 31.7235 33.02 31.7835 32.9C31.8435 32.78 31.9235 32.6367 32.0235 32.47C32.1302 32.3033 32.2102 32.1667 32.2635 32.06C32.0502 32.0333 31.9102 32.02 31.8435 32.02C31.5168 32.02 31.0602 32.0933 30.4735 32.24C30.3402 32.2667 30.2202 32.3 30.1135 32.34C30.0068 32.3733 29.8802 32.42 29.7335 32.48C29.5935 32.5333 29.4768 32.5767 29.3835 32.61C29.3302 32.63 29.2435 32.6667 29.1235 32.72C29.0035 32.7733 28.8968 32.82 28.8035 32.86C28.7102 32.8933 28.6435 32.91 28.6035 32.91C28.5235 32.91 28.4535 32.88 28.3935 32.82C28.3335 32.76 28.3035 32.69 28.3035 32.61C28.3035 32.5233 28.3268 32.46 28.3735 32.42C28.4135 32.3733 28.4802 32.33 28.5735 32.29C29.3135 31.9767 30.0702 31.7233 30.8435 31.53C31.1368 31.4567 31.4702 31.42 31.8435 31.42ZM34.1629 32.61C34.1629 32.5033 34.2129 32.4233 34.3129 32.37C34.4062 32.31 34.6529 32.2067 35.0529 32.06C35.2796 31.98 35.4662 31.9133 35.6129 31.86C36.6396 31.4733 37.1762 31.28 37.2229 31.28C37.3162 31.28 37.3929 31.3167 37.4529 31.39C37.5129 31.4567 37.5429 31.54 37.5429 31.64C37.5429 31.7533 37.5262 31.87 37.4929 31.99C37.4662 32.1033 37.4262 32.24 37.3729 32.4C37.3262 32.56 37.2896 32.69 37.2629 32.79C37.3896 32.7367 37.5396 32.6667 37.7129 32.58C37.8929 32.4867 38.0329 32.42 38.1329 32.38C38.2396 32.3333 38.3229 32.31 38.3829 32.31C38.4562 32.31 38.5196 32.34 38.5729 32.4C38.6262 32.4533 38.6529 32.5233 38.6529 32.61C38.6529 32.6567 38.6462 32.6967 38.6329 32.73C38.6262 32.7567 38.6129 32.7833 38.5929 32.81C38.5729 32.83 38.5329 32.8533 38.4729 32.88C38.4196 32.9067 38.3629 32.9333 38.3029 32.96C38.2496 32.9867 38.1629 33.03 38.0429 33.09C37.9229 33.1433 37.8029 33.2 37.6829 33.26C37.5362 33.3333 37.3962 33.4067 37.2629 33.48C37.1296 33.5533 37.0396 33.6033 36.9929 33.63C36.9462 33.65 36.8996 33.67 36.8529 33.69C36.8129 33.7033 36.7729 33.71 36.7329 33.71C36.6529 33.71 36.5829 33.6833 36.5229 33.63C36.4696 33.57 36.4429 33.5 36.4429 33.42C36.4429 33.3867 36.4629 33.2967 36.5029 33.15C36.5496 33.0033 36.6096 32.8167 36.6829 32.59C36.7629 32.3567 36.8229 32.1733 36.8629 32.04C36.7296 32.0933 36.5529 32.16 36.3329 32.24C36.1129 32.32 35.9362 32.3833 35.8029 32.43C34.9296 32.75 34.4829 32.91 34.4629 32.91C34.3762 32.91 34.3062 32.8833 34.2529 32.83C34.1929 32.77 34.1629 32.6967 34.1629 32.61ZM-0.3 41.61C-0.3 41.4767 -0.113333 41.2867 0.26 41.04C0.5 40.88 0.733333 40.8 0.96 40.8C1.10667 40.8 1.22333 40.8367 1.31 40.91C1.39667 40.9833 1.44 41.08 1.44 41.2C1.44 41.3133 1.41 41.4467 1.35 41.6C1.29 41.7533 1.20667 41.9333 1.1 42.14C1 42.3467 0.923333 42.5267 0.87 42.68C1.06333 42.6467 1.27333 42.57 1.5 42.45C1.72667 42.33 1.89333 42.2333 2 42.16C2.10667 42.08 2.28 41.95 2.52 41.77C2.81333 41.55 3.21667 41.1933 3.73 40.7C3.74333 40.6867 3.76667 40.6633 3.8 40.63C3.83333 40.59 3.85667 40.5633 3.87 40.55C3.89 40.5367 3.91333 40.52 3.94 40.5C3.96667 40.48 3.99333 40.4667 4.02 40.46C4.05333 40.4467 4.08667 40.44 4.12 40.44C4.20667 40.44 4.28 40.4733 4.34 40.54C4.40667 40.6067 4.44 40.6867 4.44 40.78C4.44 40.86 4.41333 40.97 4.36 41.11C4.31333 41.25 4.24333 41.43 4.15 41.65C4.05667 41.87 3.98667 42.0367 3.94 42.15C4.09333 42.1233 4.31667 42.0067 4.61 41.8C4.72333 41.72 4.82 41.6433 4.9 41.57C4.98667 41.4967 5.04667 41.4467 5.08 41.42C5.11333 41.3867 5.14667 41.36 5.18 41.34C5.22 41.32 5.26333 41.31 5.31 41.31C5.39667 41.31 5.47 41.34 5.53 41.4C5.59 41.4533 5.62 41.5233 5.62 41.61C5.62 41.65 5.61 41.69 5.59 41.73C5.57667 41.7633 5.55 41.8 5.51 41.84C5.47 41.88 5.43 41.9167 5.39 41.95C5.35667 41.9767 5.30333 42.02 5.23 42.08C5.15667 42.1333 5.09667 42.18 5.05 42.22C4.62333 42.58 4.21667 42.76 3.83 42.76C3.47667 42.76 3.3 42.6133 3.3 42.32C3.3 42.26 3.30667 42.2067 3.32 42.16C3.33333 42.1067 3.35 42.0467 3.37 41.98C3.39 41.9133 3.40667 41.8567 3.42 41.81C3.34667 41.87 3.20333 41.99 2.99 42.17C2.77667 42.3433 2.59 42.4833 2.43 42.59C2.17667 42.7567 1.98333 42.88 1.85 42.96C1.72333 43.0333 1.56 43.1067 1.36 43.18C1.16 43.2533 0.966667 43.29 0.78 43.29C0.593333 43.29 0.453333 43.2467 0.36 43.16C0.266667 43.08 0.22 42.9733 0.22 42.84C0.22 42.7267 0.25 42.5867 0.31 42.42C0.376667 42.2533 0.46 42.0667 0.56 41.86C0.666667 41.6467 0.73 41.5133 0.75 41.46C0.696667 41.48 0.603333 41.5333 0.47 41.62C0.423333 41.6533 0.373333 41.69 0.32 41.73C0.273333 41.77 0.236667 41.8033 0.21 41.83C0.19 41.85 0.16 41.87 0.12 41.89C0.0866667 41.9033 0.0466667 41.91 0 41.91C-0.08 41.91 -0.15 41.88 -0.21 41.82C-0.27 41.76 -0.3 41.69 -0.3 41.61ZM5.0418 41.61C5.0418 41.5633 5.04846 41.5267 5.0618 41.5C5.06846 41.4733 5.08846 41.44 5.1218 41.4C5.15513 41.36 5.1918 41.3267 5.2318 41.3C5.26513 41.2667 5.32846 41.2133 5.4218 41.14C5.51513 41.06 5.60513 40.98 5.6918 40.9C6.19846 40.44 6.62513 40.21 6.9718 40.21C7.1318 40.21 7.26513 40.2567 7.3718 40.35C7.48513 40.4367 7.5418 40.55 7.5418 40.69C7.5418 40.7967 7.51846 40.9033 7.4718 41.01C7.42513 41.11 7.3518 41.23 7.2518 41.37C7.1518 41.51 7.0818 41.6133 7.0418 41.68C7.22846 41.62 7.40846 41.5567 7.5818 41.49C7.75513 41.4167 7.87513 41.37 7.9418 41.35C8.01513 41.3233 8.07846 41.31 8.1318 41.31C8.20513 41.31 8.2718 41.34 8.3318 41.4C8.3918 41.46 8.4218 41.53 8.4218 41.61C8.4218 41.77 8.28513 41.89 8.0118 41.97C7.8918 42.0033 7.7218 42.0633 7.5018 42.15C7.2818 42.2367 7.13846 42.29 7.0718 42.31C7.02513 42.3233 6.97513 42.34 6.9218 42.36C6.86846 42.38 6.8218 42.3967 6.7818 42.41C6.74846 42.4167 6.70846 42.42 6.6618 42.42C6.54846 42.42 6.4518 42.3767 6.3718 42.29C6.2918 42.2033 6.2518 42.1033 6.2518 41.99C6.2518 41.91 6.2718 41.82 6.3118 41.72C6.35846 41.6133 6.40513 41.5233 6.4518 41.45C6.50513 41.37 6.57846 41.2633 6.6718 41.13C6.76513 40.9967 6.8318 40.8967 6.8718 40.83C6.73846 40.85 6.5218 40.9867 6.2218 41.24C6.09513 41.3467 5.9718 41.4533 5.8518 41.56C5.73846 41.6667 5.65846 41.74 5.6118 41.78C5.5718 41.8133 5.52846 41.8433 5.4818 41.87C5.43513 41.8967 5.38846 41.91 5.3418 41.91C5.25513 41.91 5.18513 41.8833 5.1318 41.83C5.0718 41.77 5.0418 41.6967 5.0418 41.61ZM7.825 41.61C7.825 41.5633 7.83167 41.5267 7.845 41.5C7.85167 41.4733 7.87167 41.44 7.905 41.4C7.93833 41.36 7.975 41.3267 8.015 41.3C8.04833 41.2667 8.11167 41.2133 8.205 41.14C8.29833 41.06 8.38833 40.98 8.475 40.9C8.98167 40.44 9.40833 40.21 9.755 40.21C9.915 40.21 10.0483 40.2567 10.155 40.35C10.2683 40.4367 10.325 40.55 10.325 40.69C10.325 40.7967 10.3017 40.9033 10.255 41.01C10.2083 41.11 10.135 41.23 10.035 41.37C9.935 41.51 9.865 41.6133 9.825 41.68C10.0117 41.62 10.1917 41.5567 10.365 41.49C10.5383 41.4167 10.6583 41.37 10.725 41.35C10.7983 41.3233 10.8617 41.31 10.915 41.31C10.9883 41.31 11.055 41.34 11.115 41.4C11.175 41.46 11.205 41.53 11.205 41.61C11.205 41.77 11.0683 41.89 10.795 41.97C10.675 42.0033 10.505 42.0633 10.285 42.15C10.065 42.2367 9.92167 42.29 9.855 42.31C9.80833 42.3233 9.75833 42.34 9.705 42.36C9.65167 42.38 9.605 42.3967 9.565 42.41C9.53167 42.4167 9.49167 42.42 9.445 42.42C9.33167 42.42 9.235 42.3767 9.155 42.29C9.075 42.2033 9.035 42.1033 9.035 41.99C9.035 41.91 9.055 41.82 9.095 41.72C9.14167 41.6133 9.18833 41.5233 9.235 41.45C9.28833 41.37 9.36167 41.2633 9.455 41.13C9.54833 40.9967 9.615 40.8967 9.655 40.83C9.52167 40.85 9.305 40.9867 9.005 41.24C8.87833 41.3467 8.755 41.4533 8.635 41.56C8.52167 41.6667 8.44167 41.74 8.395 41.78C8.355 41.8133 8.31167 41.8433 8.265 41.87C8.21833 41.8967 8.17167 41.91 8.125 41.91C8.03833 41.91 7.96833 41.8833 7.915 41.83C7.855 41.77 7.825 41.6967 7.825 41.61ZM10.6082 41.61C10.6082 41.5033 10.6582 41.4233 10.7582 41.37C10.8515 41.31 11.0982 41.2067 11.4982 41.06C11.7249 40.98 11.9115 40.9133 12.0582 40.86C13.0849 40.4733 13.6215 40.28 13.6682 40.28C13.7615 40.28 13.8382 40.3167 13.8982 40.39C13.9582 40.4567 13.9882 40.54 13.9882 40.64C13.9882 40.7533 13.9715 40.87 13.9382 40.99C13.9115 41.1033 13.8715 41.24 13.8182 41.4C13.7715 41.56 13.7349 41.69 13.7082 41.79C13.8349 41.7367 13.9849 41.6667 14.1582 41.58C14.3382 41.4867 14.4782 41.42 14.5782 41.38C14.6849 41.3333 14.7682 41.31 14.8282 41.31C14.9015 41.31 14.9649 41.34 15.0182 41.4C15.0715 41.4533 15.0982 41.5233 15.0982 41.61C15.0982 41.6567 15.0915 41.6967 15.0782 41.73C15.0715 41.7567 15.0582 41.7833 15.0382 41.81C15.0182 41.83 14.9782 41.8533 14.9182 41.88C14.8649 41.9067 14.8082 41.9333 14.7482 41.96C14.6949 41.9867 14.6082 42.03 14.4882 42.09C14.3682 42.1433 14.2482 42.2 14.1282 42.26C13.9815 42.3333 13.8415 42.4067 13.7082 42.48C13.5749 42.5533 13.4849 42.6033 13.4382 42.63C13.3915 42.65 13.3449 42.67 13.2982 42.69C13.2582 42.7033 13.2182 42.71 13.1782 42.71C13.0982 42.71 13.0282 42.6833 12.9682 42.63C12.9149 42.57 12.8882 42.5 12.8882 42.42C12.8882 42.3867 12.9082 42.2967 12.9482 42.15C12.9949 42.0033 13.0549 41.8167 13.1282 41.59C13.2082 41.3567 13.2682 41.1733 13.3082 41.04C13.1749 41.0933 12.9982 41.16 12.7782 41.24C12.5582 41.32 12.3815 41.3833 12.2482 41.43C11.3749 41.75 10.9282 41.91 10.9082 41.91C10.8215 41.91 10.7515 41.8833 10.6982 41.83C10.6382 41.77 10.6082 41.6967 10.6082 41.61ZM14.5242 41.61C14.5242 41.5633 14.5309 41.5267 14.5442 41.5C14.5509 41.4733 14.5709 41.44 14.6042 41.4C14.6376 41.36 14.6742 41.3267 14.7142 41.3C14.7476 41.2667 14.8109 41.2133 14.9042 41.14C14.9976 41.06 15.0876 40.98 15.1742 40.9C15.6809 40.44 16.1076 40.21 16.4542 40.21C16.6142 40.21 16.7476 40.2567 16.8542 40.35C16.9676 40.4367 17.0242 40.55 17.0242 40.69C17.0242 40.7967 17.0009 40.9033 16.9542 41.01C16.9076 41.11 16.8342 41.23 16.7342 41.37C16.6342 41.51 16.5642 41.6133 16.5242 41.68C16.7109 41.62 16.8909 41.5567 17.0642 41.49C17.2376 41.4167 17.3576 41.37 17.4242 41.35C17.4976 41.3233 17.5609 41.31 17.6142 41.31C17.6876 41.31 17.7542 41.34 17.8142 41.4C17.8742 41.46 17.9042 41.53 17.9042 41.61C17.9042 41.77 17.7676 41.89 17.4942 41.97C17.3742 42.0033 17.2042 42.0633 16.9842 42.15C16.7642 42.2367 16.6209 42.29 16.5542 42.31C16.5076 42.3233 16.4576 42.34 16.4042 42.36C16.3509 42.38 16.3042 42.3967 16.2642 42.41C16.2309 42.4167 16.1909 42.42 16.1442 42.42C16.0309 42.42 15.9342 42.3767 15.8542 42.29C15.7742 42.2033 15.7342 42.1033 15.7342 41.99C15.7342 41.91 15.7542 41.82 15.7942 41.72C15.8409 41.6133 15.8876 41.5233 15.9342 41.45C15.9876 41.37 16.0609 41.2633 16.1542 41.13C16.2476 40.9967 16.3142 40.8967 16.3542 40.83C16.2209 40.85 16.0042 40.9867 15.7042 41.24C15.5776 41.3467 15.4542 41.4533 15.3342 41.56C15.2209 41.6667 15.1409 41.74 15.0942 41.78C15.0542 41.8133 15.0109 41.8433 14.9642 41.87C14.9176 41.8967 14.8709 41.91 14.8242 41.91C14.7376 41.91 14.6676 41.8833 14.6142 41.83C14.5542 41.77 14.5242 41.6967 14.5242 41.61ZM20.8474 40.42C21.1741 40.42 21.4308 40.4567 21.6174 40.53C21.8041 40.6033 21.8974 40.7467 21.8974 40.96C21.8974 41.0733 21.8741 41.18 21.8274 41.28C21.7874 41.3733 21.7274 41.4867 21.6474 41.62C21.5674 41.7467 21.5074 41.8533 21.4674 41.94C21.7074 41.88 21.9874 41.7967 22.3074 41.69C22.6274 41.5833 22.8908 41.4933 23.0974 41.42C23.3108 41.3467 23.4341 41.31 23.4674 41.31C23.5608 41.31 23.6341 41.34 23.6874 41.4C23.7408 41.46 23.7674 41.5333 23.7674 41.62C23.7674 41.7533 23.6674 41.8567 23.4674 41.93C22.1741 42.39 21.3874 42.62 21.1074 42.62C20.9941 42.62 20.8974 42.58 20.8174 42.5C20.7374 42.42 20.6974 42.3267 20.6974 42.22C20.6974 42.1267 20.7274 42.02 20.7874 41.9C20.8474 41.78 20.9274 41.6367 21.0274 41.47C21.1341 41.3033 21.2141 41.1667 21.2674 41.06C21.0541 41.0333 20.9141 41.02 20.8474 41.02C20.5208 41.02 20.0641 41.0933 19.4774 41.24C19.3441 41.2667 19.2241 41.3 19.1174 41.34C19.0108 41.3733 18.8841 41.42 18.7374 41.48C18.5974 41.5333 18.4808 41.5767 18.3874 41.61C18.3341 41.63 18.2474 41.6667 18.1274 41.72C18.0074 41.7733 17.9008 41.82 17.8074 41.86C17.7141 41.8933 17.6474 41.91 17.6074 41.91C17.5274 41.91 17.4574 41.88 17.3974 41.82C17.3374 41.76 17.3074 41.69 17.3074 41.61C17.3074 41.5233 17.3308 41.46 17.3774 41.42C17.4174 41.3733 17.4841 41.33 17.5774 41.29C18.3174 40.9767 19.0741 40.7233 19.8474 40.53C20.1408 40.4567 20.4741 40.42 20.8474 40.42ZM26.7068 40.42C27.0335 40.42 27.2901 40.4567 27.4768 40.53C27.6635 40.6033 27.7568 40.7467 27.7568 40.96C27.7568 41.0733 27.7335 41.18 27.6868 41.28C27.6468 41.3733 27.5868 41.4867 27.5068 41.62C27.4268 41.7467 27.3668 41.8533 27.3268 41.94C27.5668 41.88 27.8468 41.7967 28.1668 41.69C28.4868 41.5833 28.7501 41.4933 28.9568 41.42C29.1701 41.3467 29.2935 41.31 29.3268 41.31C29.4201 41.31 29.4935 41.34 29.5468 41.4C29.6001 41.46 29.6268 41.5333 29.6268 41.62C29.6268 41.7533 29.5268 41.8567 29.3268 41.93C28.0335 42.39 27.2468 42.62 26.9668 42.62C26.8535 42.62 26.7568 42.58 26.6768 42.5C26.5968 42.42 26.5568 42.3267 26.5568 42.22C26.5568 42.1267 26.5868 42.02 26.6468 41.9C26.7068 41.78 26.7868 41.6367 26.8868 41.47C26.9935 41.3033 27.0735 41.1667 27.1268 41.06C26.9135 41.0333 26.7735 41.02 26.7068 41.02C26.3801 41.02 25.9235 41.0933 25.3368 41.24C25.2035 41.2667 25.0835 41.3 24.9768 41.34C24.8701 41.3733 24.7435 41.42 24.5968 41.48C24.4568 41.5333 24.3401 41.5767 24.2468 41.61C24.1935 41.63 24.1068 41.6667 23.9868 41.72C23.8668 41.7733 23.7601 41.82 23.6668 41.86C23.5735 41.8933 23.5068 41.91 23.4668 41.91C23.3868 41.91 23.3168 41.88 23.2568 41.82C23.1968 41.76 23.1668 41.69 23.1668 41.61C23.1668 41.5233 23.1901 41.46 23.2368 41.42C23.2768 41.3733 23.3435 41.33 23.4368 41.29C24.1768 40.9767 24.9335 40.7233 25.7068 40.53C26.0001 40.4567 26.3335 40.42 26.7068 40.42ZM29.0262 41.61C29.0262 41.5633 29.0328 41.5267 29.0462 41.5C29.0528 41.4733 29.0728 41.44 29.1062 41.4C29.1395 41.36 29.1762 41.3267 29.2162 41.3C29.2495 41.2667 29.3128 41.2133 29.4062 41.14C29.4995 41.06 29.5895 40.98 29.6762 40.9C30.1828 40.44 30.6095 40.21 30.9562 40.21C31.1162 40.21 31.2495 40.2567 31.3562 40.35C31.4695 40.4367 31.5262 40.55 31.5262 40.69C31.5262 40.7967 31.5028 40.9033 31.4562 41.01C31.4095 41.11 31.3362 41.23 31.2362 41.37C31.1362 41.51 31.0662 41.6133 31.0262 41.68C31.2128 41.62 31.3928 41.5567 31.5662 41.49C31.7395 41.4167 31.8595 41.37 31.9262 41.35C31.9995 41.3233 32.0628 41.31 32.1162 41.31C32.1895 41.31 32.2562 41.34 32.3162 41.4C32.3762 41.46 32.4062 41.53 32.4062 41.61C32.4062 41.77 32.2695 41.89 31.9962 41.97C31.8762 42.0033 31.7062 42.0633 31.4862 42.15C31.2662 42.2367 31.1228 42.29 31.0562 42.31C31.0095 42.3233 30.9595 42.34 30.9062 42.36C30.8528 42.38 30.8062 42.3967 30.7662 42.41C30.7328 42.4167 30.6928 42.42 30.6462 42.42C30.5328 42.42 30.4362 42.3767 30.3562 42.29C30.2762 42.2033 30.2362 42.1033 30.2362 41.99C30.2362 41.91 30.2562 41.82 30.2962 41.72C30.3428 41.6133 30.3895 41.5233 30.4362 41.45C30.4895 41.37 30.5628 41.2633 30.6562 41.13C30.7495 40.9967 30.8162 40.8967 30.8562 40.83C30.7228 40.85 30.5062 40.9867 30.2062 41.24C30.0795 41.3467 29.9562 41.4533 29.8362 41.56C29.7228 41.6667 29.6428 41.74 29.5962 41.78C29.5562 41.8133 29.5128 41.8433 29.4662 41.87C29.4195 41.8967 29.3728 41.91 29.3262 41.91C29.2395 41.91 29.1695 41.8833 29.1162 41.83C29.0562 41.77 29.0262 41.6967 29.0262 41.61ZM31.8094 41.61C31.8094 41.5033 31.8594 41.4233 31.9594 41.37C32.0527 41.31 32.2994 41.2067 32.6994 41.06C32.926 40.98 33.1127 40.9133 33.2594 40.86C34.286 40.4733 34.8227 40.28 34.8694 40.28C34.9627 40.28 35.0394 40.3167 35.0994 40.39C35.1594 40.4567 35.1894 40.54 35.1894 40.64C35.1894 40.7533 35.1727 40.87 35.1394 40.99C35.1127 41.1033 35.0727 41.24 35.0194 41.4C34.9727 41.56 34.936 41.69 34.9094 41.79C35.036 41.7367 35.186 41.6667 35.3594 41.58C35.5394 41.4867 35.6794 41.42 35.7794 41.38C35.886 41.3333 35.9694 41.31 36.0294 41.31C36.1027 41.31 36.166 41.34 36.2194 41.4C36.2727 41.4533 36.2994 41.5233 36.2994 41.61C36.2994 41.6567 36.2927 41.6967 36.2794 41.73C36.2727 41.7567 36.2594 41.7833 36.2394 41.81C36.2194 41.83 36.1794 41.8533 36.1194 41.88C36.066 41.9067 36.0094 41.9333 35.9494 41.96C35.896 41.9867 35.8094 42.03 35.6894 42.09C35.5694 42.1433 35.4494 42.2 35.3294 42.26C35.1827 42.3333 35.0427 42.4067 34.9094 42.48C34.776 42.5533 34.686 42.6033 34.6394 42.63C34.5927 42.65 34.546 42.67 34.4994 42.69C34.4594 42.7033 34.4194 42.71 34.3794 42.71C34.2994 42.71 34.2294 42.6833 34.1694 42.63C34.116 42.57 34.0894 42.5 34.0894 42.42C34.0894 42.3867 34.1094 42.2967 34.1494 42.15C34.196 42.0033 34.256 41.8167 34.3294 41.59C34.4094 41.3567 34.4694 41.1733 34.5094 41.04C34.376 41.0933 34.1994 41.16 33.9794 41.24C33.7594 41.32 33.5827 41.3833 33.4494 41.43C32.576 41.75 32.1294 41.91 32.1094 41.91C32.0227 41.91 31.9527 41.8833 31.8994 41.83C31.8394 41.77 31.8094 41.6967 31.8094 41.61ZM37.2354 41.98C37.4021 41.98 37.5354 42.0367 37.6354 42.15C37.7354 42.2567 37.7854 42.3733 37.7854 42.5C37.7854 42.6867 37.7287 42.83 37.6154 42.93C37.5021 43.03 37.3621 43.08 37.1954 43.08C37.0154 43.08 36.8754 43.0333 36.7754 42.94C36.6754 42.84 36.6254 42.71 36.6254 42.55C36.6254 42.39 36.6821 42.2567 36.7954 42.15C36.9087 42.0367 37.0554 41.98 37.2354 41.98Z" transform="translate(151.816 34)" fill="#D5DCE3"/>
<g filter="url(#filter3_dd)">
<path d="M0 18C0 15.2386 2.23858 13 5 13H198.292C200.601 13 202.609 11.4192 203.152 9.17514L204.446 3.82486C204.988 1.58077 206.997 0 209.306 0H258C260.761 0 263 2.23858 263 5V131C263 133.761 260.761 136 258 136H5C2.23858 136 0 133.761 0 131V18Z" transform="translate(13 63)" fill="white"/>
<path d="M0 18C0 15.2386 2.23858 13 5 13H198.292C200.601 13 202.609 11.4192 203.152 9.17514L204.446 3.82486C204.988 1.58077 206.997 0 209.306 0H258C260.761 0 263 2.23858 263 5V131C263 133.761 260.761 136 258 136H5C2.23858 136 0 133.761 0 131V18Z" transform="translate(13 63)" fill="url(#paint1_linear)"/>
<path d="M0.5 18C0.5 15.5147 2.51472 13.5 5 13.5H198.292C200.832 13.5 203.041 11.7612 203.638 9.29265L204.932 3.94237C205.42 1.92269 207.228 0.5 209.306 0.5H258C260.485 0.5 262.5 2.51472 262.5 5V131C262.5 133.485 260.485 135.5 258 135.5H5C2.51472 135.5 0.5 133.485 0.5 131V18Z" transform="translate(13 63)" stroke="#D5DCE3"/>
</g>
<defs>
<filter id="filter0_dd" x="6" y="48" width="277" height="172" filterUnits="userSpaceOnUse" color-interpolation-filters="sRGB">
<feFlood flood-opacity="0" result="BackgroundImageFix"/>
<feColorMatrix in="SourceAlpha" type="matrix" values="0 0 0 0 0 0 0 0 0 0 0 0 0 0 0 0 0 0 255 0"/>
<feOffset dy="1"/>
<feGaussianBlur stdDeviation="2"/>
<feColorMatrix type="matrix" values="0 0 0 0 0.0763048 0 0 0 0 0.208067 0 0 0 0 0.329694 0 0 0 0.04 0"/>
<feBlend mode="normal" in2="BackgroundImageFix" result="effect1_dropShadow"/>
<feColorMatrix in="SourceAlpha" type="matrix" values="0 0 0 0 0 0 0 0 0 0 0 0 0 0 0 0 0 0 255 0"/>
<feOffset dy="8"/>
<feGaussianBlur stdDeviation="6.5"/>
<feColorMatrix type="matrix" values="0 0 0 0 0 0 0 0 0 0.205502 0 0 0 0 0.395196 0 0 0 0.03 0"/>
<feBlend mode="normal" in2="effect1_dropShadow" result="effect2_dropShadow"/>
<feBlend mode="normal" in="SourceGraphic" in2="effect2_dropShadow" result="shape"/>
</filter>
<filter id="filter1_ddd" x="37.874" y="5" width="213.251" height="98" filterUnits="userSpaceOnUse" color-interpolation-filters="sRGB">
<feFlood flood-opacity="0" result="BackgroundImageFix"/>
<feColorMatrix in="SourceAlpha" type="matrix" values="0 0 0 0 0 0 0 0 0 0 0 0 0 0 0 0 0 0 255 0"/>
<feOffset dy="1"/>
<feGaussianBlur stdDeviation="2"/>
<feColorMatrix type="matrix" values="0 0 0 0 0.0763048 0 0 0 0 0.208067 0 0 0 0 0.329694 0 0 0 0.04 0"/>
<feBlend mode="normal" in2="BackgroundImageFix" result="effect1_dropShadow"/>
<feColorMatrix in="SourceAlpha" type="matrix" values="0 0 0 0 0 0 0 0 0 0 0 0 0 0 0 0 0 0 255 0"/>
<feOffset dy="8"/>
<feGaussianBlur stdDeviation="6.5"/>
<feColorMatrix type="matrix" values="0 0 0 0 0 0 0 0 0 0.205502 0 0 0 0 0.395196 0 0 0 0.03 0"/>
<feBlend mode="normal" in2="effect1_dropShadow" result="effect2_dropShadow"/>
<feColorMatrix in="SourceAlpha" type="matrix" values="0 0 0 0 0 0 0 0 0 0 0 0 0 0 0 0 0 0 255 0"/>
<feOffset/>
<feColorMatrix type="matrix" values="0 0 0 0 0 0 0 0 0 0 0 0 0 0 0 0 0 0 0.05 0"/>
<feBlend mode="normal" in2="effect2_dropShadow" result="effect3_dropShadow"/>
<feBlend mode="normal" in="SourceGraphic" in2="effect3_dropShadow" result="shape"/>
</filter>
<filter id="filter2_dddd" x="29" y="0" width="231" height="100" filterUnits="userSpaceOnUse" color-interpolation-filters="sRGB">
<feFlood flood-opacity="0" result="BackgroundImageFix"/>
<feColorMatrix in="SourceAlpha" type="matrix" values="0 0 0 0 0 0 0 0 0 0 0 0 0 0 0 0 0 0 255 0"/>
<feOffset dy="-2"/>
<feGaussianBlur stdDeviation="6.5"/>
<feColorMatrix type="matrix" values="0 0 0 0 0.262745 0 0 0 0 0.303529 0 0 0 0 0.341176 0 0 0 0.06 0"/>
<feBlend mode="normal" in2="BackgroundImageFix" result="effect1_dropShadow"/>
<feColorMatrix in="SourceAlpha" type="matrix" values="0 0 0 0 0 0 0 0 0 0 0 0 0 0 0 0 0 0 255 0"/>
<feOffset dy="1"/>
<feGaussianBlur stdDeviation="2"/>
<feColorMatrix type="matrix" values="0 0 0 0 0.0763048 0 0 0 0 0.208067 0 0 0 0 0.329694 0 0 0 0.04 0"/>
<feBlend mode="normal" in2="effect1_dropShadow" result="effect2_dropShadow"/>
<feColorMatrix in="SourceAlpha" type="matrix" values="0 0 0 0 0 0 0 0 0 0 0 0 0 0 0 0 0 0 255 0"/>
<feOffset dy="8"/>
<feGaussianBlur stdDeviation="6.5"/>
<feColorMatrix type="matrix" values="0 0 0 0 0 0 0 0 0 0.205502 0 0 0 0 0.395196 0 0 0 0.03 0"/>
<feBlend mode="normal" in2="effect2_dropShadow" result="effect3_dropShadow"/>
<feColorMatrix in="SourceAlpha" type="matrix" values="0 0 0 0 0 0 0 0 0 0 0 0 0 0 0 0 0 0 255 0"/>
<feOffset/>
<feColorMatrix type="matrix" values="0 0 0 0 0 0 0 0 0 0 0 0 0 0 0 0 0 0 0.05 0"/>
<feBlend mode="normal" in2="effect3_dropShadow" result="effect4_dropShadow"/>
<feBlend mode="normal" in="SourceGraphic" in2="effect4_dropShadow" result="shape"/>
</filter>
<filter id="filter3_dd" x="0" y="58" width="289" height="162" filterUnits="userSpaceOnUse" color-interpolation-filters="sRGB">
<feFlood flood-opacity="0" result="BackgroundImageFix"/>
<feColorMatrix in="SourceAlpha" type="matrix" values="0 0 0 0 0 0 0 0 0 0 0 0 0 0 0 0 0 0 255 0"/>
<feOffset dy="1"/>
<feGaussianBlur stdDeviation="2"/>
<feColorMatrix type="matrix" values="0 0 0 0 0.0763048 0 0 0 0 0.208067 0 0 0 0 0.329694 0 0 0 0.04 0"/>
<feBlend mode="normal" in2="BackgroundImageFix" result="effect1_dropShadow"/>
<feColorMatrix in="SourceAlpha" type="matrix" values="0 0 0 0 0 0 0 0 0 0 0 0 0 0 0 0 0 0 255 0"/>
<feOffset dy="8"/>
<feGaussianBlur stdDeviation="6.5"/>
<feColorMatrix type="matrix" values="0 0 0 0 0 0 0 0 0 0.205502 0 0 0 0 0.395196 0 0 0 0.03 0"/>
<feBlend mode="normal" in2="effect1_dropShadow" result="effect2_dropShadow"/>
<feBlend mode="normal" in="SourceGraphic" in2="effect2_dropShadow" result="shape"/>
</filter>
<linearGradient id="paint0_linear" x2="1" gradientUnits="userSpaceOnUse" gradientTransform="translate(69.168 60.5) scale(65.6641 20.5) rotate(-90)">
<stop stop-color="#AEC6DE"/>
<stop offset="1" stop-color="white" stop-opacity="0"/>
</linearGradient>
<linearGradient id="paint1_linear" x2="1" gradientUnits="userSpaceOnUse" gradientTransform="translate(112.515 62) scale(38.9692 18) rotate(-90)">
<stop stop-color="#9DAAB5" stop-opacity="0.14"/>
<stop offset="1" stop-color="white" stop-opacity="0"/>
</linearGradient>
</defs>
</svg>
