<svg width="208" height="33" viewBox="0 0 208 33" fill="none" xmlns="http://www.w3.org/2000/svg">
<path fill-rule="evenodd" clip-rule="evenodd" d="M7.83731 16.7493C5.89951 16.7493 5.36234 13.862 5.36234 10.397C5.36234 7.6328 5.7753 4.1259 7.7545 4.1259C9.61113 4.1259 10.0649 7.6328 10.0649 10.397C10.0649 13.3661 9.61113 16.7493 7.83731 16.7493ZM7.79589 0C3.79554 0 0 3.25897 0 10.5202C0 17.0801 2.88792 20.8758 7.71308 20.8758C10.765 20.8758 15.4273 18.8123 15.4273 10.397C15.4273 4.00166 12.5808 0 7.79589 0Z" transform="translate(152.342 4.96582)" fill="#3A3542"/>
<path fill-rule="evenodd" clip-rule="evenodd" d="M5.11557 3.30039H4.95049C4.95049 3.30039 4.79757 1.77416 4.74181 1.18332C4.6866 0.591938 4.27253 0.371618 3.93797 0.371618C3.60286 0.371618 0 0.371618 0 0.371618C0.0833638 2.26891 0.165078 4.45555 0.165078 6.43512V20.545C0.165078 20.545 4.17647 20.545 4.67775 20.545C5.17904 20.545 5.56881 20.1331 5.56881 19.5848C5.56881 19.0348 5.56881 10.2728 5.56881 10.2728C5.56881 9.44671 5.65163 8.70514 5.8167 8.25179C6.39417 6.18719 7.92011 5.4042 9.07616 5.4042C9.20756 5.4042 9.33287 5.40199 9.45157 5.40641C10.0003 5.42684 10.2306 4.9492 10.2306 4.44782C10.2306 3.94644 10.2306 0.124241 10.2306 0.124241C9.94072 0.041966 9.65308 0 9.07616 0C7.63137 0 5.98122 1.15461 5.11557 3.30039Z" transform="translate(169.387 4.948)" fill="#3A3542"/>
<path fill-rule="evenodd" clip-rule="evenodd" d="M5.115 3.30039H4.94993C4.94993 3.30039 4.79701 1.77416 4.74125 1.18332C4.68549 0.591938 4.27088 0.371618 3.93742 0.371618C3.60286 0.371618 0 0.371618 0 0.371618C0.0822596 2.26891 0.165078 4.45555 0.165078 6.43512V20.545C0.165078 20.545 4.17592 20.545 4.6772 20.545C5.17794 20.545 5.56771 20.1331 5.56771 19.5848C5.56771 19.0348 5.56771 10.2728 5.56771 10.2728C5.56771 9.44671 5.65162 8.70514 5.81614 8.25179C6.39362 6.18719 7.91956 5.4042 9.07506 5.4042C9.20701 5.4042 9.33178 5.40199 9.45048 5.40641C9.99979 5.42684 10.2295 4.9492 10.2295 4.44782C10.2295 3.94644 10.2295 0.124241 10.2295 0.124241C9.94072 0.041966 9.65198 0 9.07506 0C7.63082 0 5.98066 1.15461 5.115 3.30039Z" transform="translate(116.625 4.948)" fill="#3A3542"/>
<path fill-rule="evenodd" clip-rule="evenodd" d="M10.0235 13.7769C10.0235 13.7769 14.1409 6.70624 14.3987 6.23633C14.6571 5.76698 14.4589 5.31971 13.9814 5.31971C13.5022 5.31971 9.1783 5.31971 9.1783 5.31971C9.1783 5.31971 7.31282 10.4301 5.40318 12.2871V0C5.40318 0 1.29958 0 0.965024 0C0.39252 0 0 0.451684 0 1.08835C0 1.42242 0 25.4931 0 25.4931C0 25.4931 4.35644 25.4931 4.7578 25.4931C5.15916 25.4931 5.40318 25.275 5.40318 24.9017C5.40318 24.5301 5.40318 18.9337 5.40318 18.9337C5.79515 18.6339 6.18437 18.2888 6.56255 17.9232L9.19816 25.4931C9.19816 25.4931 14.375 25.4931 14.6615 25.4931C14.9497 25.4931 15.0993 25.2214 14.9784 24.947C14.857 24.6742 10.0235 13.7769 10.0235 13.7769Z" transform="translate(181.256)" fill="#3A3542"/>
<path fill-rule="evenodd" clip-rule="evenodd" d="M19.2217 0C18.1899 0 17.2425 0.24793 16.4171 0.743236C15.6321 1.23744 14.8492 1.98012 14.354 2.76422H14.2718C13.5706 1.03092 12.1264 0 9.8579 0C7.79534 0 6.10488 1.19658 5.07305 2.68139H4.99078C4.99078 2.68139 4.81191 1.19492 4.76554 0.877968C4.71916 0.56212 4.53256 0.37217 4.24548 0.37217C3.9584 0.37217 0 0.37217 0 0.37217C0.0828117 2.31088 0.165073 4.25014 0.165073 6.43512V20.545C0.165073 20.545 4.24493 20.545 4.70481 20.545C5.2602 20.545 5.59476 20.011 5.59476 19.571C5.59476 19.0348 5.56826 7.83821 5.56826 7.83821C5.56826 7.26118 5.65162 6.68305 5.77418 6.31143C6.14628 5.0751 6.97054 4.49752 7.79534 4.49752C9.48746 4.49752 9.61168 6.39426 9.61168 7.87962V20.545C9.61168 20.545 13.6142 20.545 14.136 20.545C14.6577 20.545 15.0138 20.2032 15.0138 19.571C15.0138 18.9387 15.0138 7.75649 15.0138 7.75649C15.0138 7.17891 15.0552 6.64219 15.1788 6.31143C15.509 5.15627 16.2515 4.49752 17.2 4.49752C18.8082 4.49752 19.0561 6.35395 19.0561 8.62231V20.545C19.0561 20.545 22.85 20.545 23.4523 20.545C24.0551 20.545 24.4598 20.1458 24.4598 19.571C24.4598 18.9972 24.4598 7.71452 24.4598 7.71452C24.4598 2.88846 22.8511 0 19.2217 0Z" transform="translate(36.1392 4.948)" fill="#3A3542"/>
<path fill-rule="evenodd" clip-rule="evenodd" d="M9.40465 14.1922C9.40465 14.5621 9.36269 14.8515 9.28098 15.1403C8.90944 16.3363 7.96041 16.8724 7.05335 16.8724C6.2291 16.8724 5.1139 16.1292 5.1139 14.1491C5.1139 11.3446 7.63138 10.725 9.40465 10.6853V14.1922ZM14.7245 8.41634C14.7245 4.28989 13.7357 0 7.58942 0C5.18125 0 2.73168 0.926008 1.89087 1.22419C1.39455 1.40033 1.34266 1.76477 1.4608 2.2032C1.5795 2.64163 2.26849 5.19823 2.26849 5.19823C3.50625 4.45555 4.78486 4.0011 6.39306 4.0011C8.33251 4.0011 9.23902 5.15682 9.23902 6.76643V7.21922C4.66009 7.26063 0 9.40641 0 14.7272C0 18.2755 2.26849 20.8327 5.32093 20.8327C7.09365 20.8327 8.70351 20.0497 9.77564 18.5235H9.89931C9.89931 18.5235 10.0086 19.3357 10.0848 19.7973C10.161 20.2568 10.4288 20.5025 10.8113 20.5025C11.1939 20.5025 15.0143 20.5025 15.0143 20.5025C14.8073 19.1414 14.7245 17.4914 14.7245 15.8835V8.41634Z" transform="translate(62.0725 4.98389)" fill="#3A3542"/>
<path fill-rule="evenodd" clip-rule="evenodd" d="M5.40319 0C5.40319 0 0.961725 1.36665 0.550427 1.5196C0.13692 1.67311 0 1.89177 0 2.27388C0 2.65654 0 18.6068 0 18.6068C0 21.783 0.617778 23.3103 1.68991 24.3832C2.68089 25.2904 4.04121 25.6615 5.60911 25.6615C7.01139 25.6615 8.16579 25.4964 8.90889 25.2904C8.90889 25.2904 8.873 22.0773 8.873 21.6831C8.873 21.2882 8.79129 21.111 8.31485 21.1596C8.03384 21.1888 7.75118 21.206 7.42435 21.206C6.39197 21.206 5.40319 20.6289 5.40319 18.2772V9.07675C5.40319 9.07675 8.48103 9.07675 8.79129 9.07675C9.10211 9.07675 9.36214 8.74379 9.36214 8.4815C9.36214 8.21866 9.36214 5.24075 9.36214 5.24075H5.40319V0Z" transform="translate(90.709 0.155273)" fill="#3A3542"/>
<path fill-rule="evenodd" clip-rule="evenodd" d="M5.75541 8.58145C5.50201 8.58145 5.21548 8.44451 5.27345 7.96245C5.4987 6.07344 6.19542 3.96024 7.75449 3.96024C9.3638 3.96024 10.0235 5.98233 10.0235 8.58145C10.0235 8.58145 6.00937 8.58145 5.75541 8.58145ZM8.08518 0C3.54766 0 0 4.04307 0 10.8504C0 17.1623 3.01213 20.7924 8.53899 20.7924C10.559 20.7924 12.663 20.4219 14.025 19.8846C14.025 19.8846 13.5811 17.4279 13.4867 16.91C13.3929 16.3937 12.9909 16.1458 12.4394 16.2717C11.5953 16.4925 10.596 16.6676 9.48746 16.6676C7.13561 16.6676 5.27952 15.5124 5.23977 12.376H14.7664C14.8503 11.799 14.9326 11.0155 14.9326 9.57151C14.9326 3.42518 12.4162 0 8.08518 0Z" transform="translate(100.24 5.00342)" fill="#3A3542"/>
<path fill-rule="evenodd" clip-rule="evenodd" d="M7.30068 8.33297C5.40374 7.21977 4.94938 6.68305 4.94938 5.81723C4.94938 4.90889 5.56826 4.08393 6.97054 4.08393C7.84669 4.08393 8.63892 4.33186 9.32736 4.6698C9.57745 4.77029 9.81594 4.67477 9.87998 4.47543C9.94347 4.27499 10.7241 0.948647 10.7241 0.948647C9.65143 0.413032 8.33252 0 6.64095 0C2.59808 0 0 2.76367 0 6.39426C0 8.25124 0.825362 10.3551 4.08428 12.2115C5.857 13.2424 6.43502 13.9034 6.43502 14.9354C6.43502 16.1314 5.65052 16.7493 4.24769 16.7493C3.122 16.7493 1.90853 16.3534 1.08152 15.9359C0.90872 15.8487 0.71991 15.9155 0.690097 16.1778C0.658077 16.4484 0.614466 20.18 1.26647 20.3711C2.17906 20.6383 3.26223 20.7924 4.24769 20.7924C8.41422 20.7924 11.3844 18.5654 11.3844 14.439C11.3844 12.1292 10.2703 10.0254 7.30068 8.33297Z" transform="translate(77.8376 4.82446)" fill="#3A3542"/>
<path fill-rule="evenodd" clip-rule="evenodd" d="M7.29957 8.33352C5.40373 7.21977 4.94882 6.68305 4.94882 5.81668C4.94882 4.90944 5.56825 4.08448 6.97052 4.08448C7.84612 4.08448 8.63891 4.33186 9.32679 4.66924C9.57633 4.77029 9.81483 4.67476 9.87887 4.47543C9.94236 4.27443 10.723 0.9492 10.723 0.9492C9.65031 0.41248 8.3314 0 6.64038 0C2.59752 0 0 2.76422 0 6.39426C0 8.25124 0.824802 10.3551 4.08317 12.212C5.85644 13.2424 6.43447 13.9028 6.43447 14.9348C6.43447 16.1309 5.64941 16.7499 4.24713 16.7499C3.12089 16.7499 1.90797 16.3528 1.08096 15.9365C0.907604 15.8493 0.719354 15.9161 0.689541 16.1784C0.657521 16.4489 0.613354 20.1795 1.26536 20.3711C2.1785 20.6389 3.26222 20.7929 4.24713 20.7929C8.41422 20.7929 11.3833 18.5649 11.3833 14.4384C11.3833 12.1298 10.2703 10.026 7.29957 8.33352Z" transform="translate(196.617 5.03516)" fill="#3A3542"/>
<mask id="mask0" mask-type="alpha" maskUnits="userSpaceOnUse" x="0" y="6" width="47" height="28">
<path d="M46.391 26.4739H0V0H46.391V26.4739Z" transform="translate(0 6.52612)" fill="white"/>
</mask>
<g mask="url(#mask0)">
<path fill-rule="evenodd" clip-rule="evenodd" d="M23 1.86433C21.9665 1.62193 20.9143 1.39774 19.8427 1.19564C12.4559 -0.195302 5.51846 -0.331138 0.0274937 0.572782C-0.00452682 0.5772 -0.0122562 0.617509 0.0241809 0.630761C0.0490244 0.640149 13.8217 5.61309 23.0685 8.95213L23.0558 4.80028C23.0519 3.77543 23.0304 2.80746 23 1.86433Z" transform="translate(11.6829 6.52612)" fill="#66B44A"/>
<path fill-rule="evenodd" clip-rule="evenodd" d="M46.2931 23.4666C42.662 21.3727 5.85281 0.142424 5.70872 0.057388C5.55579 -0.0320653 5.4128 -0.00169529 5.3068 0.0457923C2.38521 1.35004 0.511455 3.17942 0.0896677 5.42128C-1.1641 12.0811 10.8773 19.9414 26.983 22.9751C34.1186 24.3186 40.8512 24.4881 46.2511 23.6825C46.361 23.6653 46.4802 23.5748 46.2931 23.4666Z" transform="translate(0 8.86475)" fill="#66B44A"/>
</g>
<path fill-rule="evenodd" clip-rule="evenodd" d="M21.0768 0C19.9025 0 19.8037 0.593595 19.6883 1.07786C19.5878 1.49807 17.0764 12.8437 17.0356 12.9818C16.9947 13.1204 16.823 13.1336 16.796 12.9818C16.7689 12.8305 14.3077 0 14.3077 0C14.3077 0 10.7965 0 10.7049 0C10.3245 0 10.1473 0.193263 10.0794 0.557703C10.017 0.892877 7.74189 12.8305 7.70821 12.9818C7.67398 13.1336 7.51774 13.0972 7.49069 12.9818C7.45481 12.8305 4.57075 0 4.57075 0C4.57075 0 1.35324 0 0.827665 0C0.15965 0 -0.10369 0.495307 0.0365379 1.07731C0.153026 1.56378 4.72147 20.1772 4.72147 20.1772C4.72147 20.1772 8.55289 20.1772 8.84936 20.1772C9.14582 20.1772 9.42628 19.9757 9.48977 19.6748C9.54663 19.4047 12.0884 7.51187 12.1293 7.32413C12.1585 7.1905 12.3545 7.18332 12.386 7.32744C12.4257 7.50525 14.9675 19.4047 15.0243 19.6748C15.0243 19.6759 15.0255 19.6759 15.0255 19.677L15.1314 20.1772H15.6659C15.8431 20.1772 17.2868 20.1772 18.418 20.1772C19.1749 20.1772 19.7926 20.1772 19.7926 20.1772C19.7926 20.1772 22.3581 9.72722 23.6936 4.28272L24.7735 0C24.7735 0 22.2499 0 21.0768 0Z" transform="translate(128.025 5.31372)" fill="#3A3542"/>
</svg>
