<svg width="17" height="14" viewBox="0 0 17 14" fill="none" xmlns="http://www.w3.org/2000/svg">
<path d="M4.00105 0V4.00105H0" transform="translate(11.6694 1.66528)" stroke="#059CAF" stroke-width="2" stroke-linecap="round" stroke-linejoin="round"/>
<path d="M0 4.00105V0H4.00105" transform="translate(1 8.33398)" stroke="#059CAF" stroke-width="2" stroke-linecap="round" stroke-linejoin="round"/>
<path d="M1.67377 3.99947C2.01197 3.04375 2.58677 2.18927 3.34452 1.51577C4.10228 0.842267 5.0183 0.371697 6.0071 0.147967C6.99591 -0.075763 8.02528 -0.0453617 8.99916 0.236334C9.97304 0.51803 10.8597 1.04184 11.5764 1.75889L14.6705 4.66632M0 7.33368L3.09415 10.2411C3.81083 10.9582 4.69748 11.482 5.67136 11.7637C6.64524 12.0454 7.67461 12.0758 8.66342 11.852C9.65223 11.6283 10.5682 11.1577 11.326 10.4842C12.0838 9.81073 12.6585 8.95625 12.9967 8.00053" transform="translate(1 1)" stroke="#059CAF" stroke-width="2" stroke-linecap="round" stroke-linejoin="round"/>
</svg>
