<svg width="33" height="57" viewBox="0 0 33 57" fill="none" xmlns="http://www.w3.org/2000/svg">
<mask id="mask0" mask-type="alpha" maskUnits="userSpaceOnUse" x="0" y="0" width="33" height="57">
<path d="M0 0V53" transform="translate(16.4546 2)" stroke="black" stroke-width="3" stroke-linecap="round" stroke-linejoin="round"/>
<path d="M26.5 0H8.43182C6.19556 0 4.0509 0.88835 2.46962 2.46962C0.88835 4.0509 0 6.19556 0 8.43182C0 10.6681 0.88835 12.8127 2.46962 14.394C4.0509 15.9753 6.19556 16.8636 8.43182 16.8636H20.4773C22.7135 16.8636 24.8582 17.752 26.4395 19.3333C28.0207 20.9145 28.9091 23.0592 28.9091 25.2955C28.9091 27.5317 28.0207 29.6764 26.4395 31.2577C24.8582 32.8389 22.7135 33.7273 20.4773 33.7273H0" transform="translate(2 11.6365)" stroke="black" stroke-width="3" stroke-linecap="round" stroke-linejoin="round"/>
</mask>
<g mask="url(#mask0)">
<rect width="66.7662" height="61.9481" transform="translate(-14.5195 -4.19482)" fill="url(#paint0_linear)"/>
</g>
<defs>
<linearGradient id="paint0_linear" x2="1" gradientUnits="userSpaceOnUse" gradientTransform="matrix(32 46.5 -53.133 52.0751 38.086 -13.3427)">
<stop stop-color="#059CAF"/>
<stop offset="1" stop-color="#005E86"/>
</linearGradient>
</defs>
</svg>
