<svg width="47" height="57" viewBox="0 0 47 57" fill="none" xmlns="http://www.w3.org/2000/svg">
<mask id="mask0" mask-type="alpha" maskUnits="userSpaceOnUse" x="0" y="0" width="47" height="57">
<path d="M26.875 0H5.375C3.94946 0 2.58231 0.558391 1.5743 1.55233C0.566293 2.54628 0 3.89435 0 5.3V47.7C0 49.1056 0.566293 50.4537 1.5743 51.4477C2.58231 52.4416 3.94946 53 5.375 53H37.625C39.0505 53 40.4177 52.4416 41.4257 51.4477C42.4337 50.4537 43 49.1056 43 47.7V15.9L26.875 0Z" transform="translate(2 2)" stroke="white" stroke-width="3" stroke-linecap="round" stroke-linejoin="round"/>
<path d="M0 0V15.9H16.125" transform="translate(28 2)" stroke="white" stroke-width="3" stroke-linecap="round" stroke-linejoin="round"/>
<path d="M21.5 0H0" transform="translate(13 31)" stroke="white" stroke-width="3" stroke-linecap="round" stroke-linejoin="round"/>
<path d="M21.5 0H0" transform="translate(13 41)" stroke="white" stroke-width="3" stroke-linecap="round" stroke-linejoin="round"/>
<path d="M5.375 0H2.6875H0" transform="translate(13 21)" stroke="white" stroke-width="3" stroke-linecap="round" stroke-linejoin="round"/>
</mask>
<g mask="url(#mask0)">
<rect width="86" height="75.2469" transform="translate(-17 -6)" fill="url(#paint0_linear)"/>
</g>
<defs>
<linearGradient id="paint0_linear" x2="1" gradientUnits="userSpaceOnUse" gradientTransform="matrix(48 54 -62.8907 70.4199 46.9454 -28.21)">
<stop stop-color="#059CAF"/>
<stop offset="1" stop-color="#005E86"/>
</linearGradient>
</defs>
</svg>
