<svg width="21" height="17" viewBox="0 0 21 17" fill="none" xmlns="http://www.w3.org/2000/svg">
<path d="M6.66758 3.33379L3.33379 0L0 3.33379" transform="translate(6.83887 8.4989)" stroke="#BEC6CE" stroke-width="2" stroke-linecap="round" stroke-linejoin="round"/>
<path d="M0 0V7.50102" transform="translate(10.1729 8.4989)" stroke="#BEC6CE" stroke-width="2" stroke-linecap="round" stroke-linejoin="round"/>
<path d="M16.165 12.8247C16.9779 12.3815 17.62 11.6803 17.9901 10.8316C18.3602 9.98295 18.4371 9.03521 18.2088 8.13797C17.9804 7.24073 17.4597 6.44509 16.729 5.87663C15.9982 5.30816 15.0989 4.99925 14.173 4.99863H13.1229C12.8706 4.02287 12.4004 3.11699 11.7477 2.3491C11.0949 1.58121 10.2766 0.971293 9.35414 0.565202C8.43172 0.159111 7.42925 -0.0325867 6.42208 0.00452132C5.41492 0.0416294 4.42927 0.306577 3.53924 0.779446C2.64921 1.25232 1.87796 1.9208 1.28347 2.73464C0.688981 3.54849 0.286724 4.48651 0.106941 5.47819C-0.0728424 6.46988 -0.025473 7.48942 0.245487 8.46016C0.516448 9.4309 1.00395 10.3276 1.67134 11.0828" transform="translate(1 1)" stroke="#BEC6CE" stroke-width="2" stroke-linecap="round" stroke-linejoin="round"/>
<path d="M6.66758 3.33379L3.33379 0L0 3.33379" transform="translate(6.83887 8.4989)" stroke="#BEC6CE" stroke-width="2" stroke-linecap="round" stroke-linejoin="round"/>
</svg>
